<?xml version="1.0" standalone="no"?>
<!DOCTYPE svg PUBLIC "-//W3C//DTD SVG 20010904//EN"
 "http://www.w3.org/TR/2001/REC-SVG-20010904/DTD/svg10.dtd">
<svg version="1.0" xmlns="http://www.w3.org/2000/svg"
 width="446.400000pt" height="240.000000pt" viewBox="0 0 446.400000 240.000000"
 preserveAspectRatio="xMidYMid meet">
<metadata>
Created by potrace 1.13, written by Peter Selinger 2001-2015
</metadata>
<g transform="translate(0.000000,240.000000) scale(0.080000,-0.080000)"
fill="#000000" stroke="none">
<path d="M1816 2021 c-3 -4 -13 -51 -22 -102 -18 -103 -14 -251 9 -349 l12
-55 376 -3 c305 -2 378 0 387 11 37 44 41 378 6 490 -5 16 -32 17 -384 17
-208 0 -381 -4 -384 -9z"/>
<path d="M1880 1362 c0 -14 85 -137 135 -195 53 -62 134 -128 206 -171 l47
-27 82 88 c86 92 129 153 180 253 l30 60 -340 0 c-187 0 -340 -4 -340 -8z"/>
<path d="M1830 424 c0 -112 3 -145 13 -142 9 3 13 44 15 146 2 122 0 142 -13
142 -13 0 -15 -22 -15 -146z"/>
<path d="M3610 425 c0 -90 4 -145 10 -145 6 0 10 35 10 85 0 81 1 85 24 91 67
17 83 -5 85 -113 1 -35 6 -63 11 -63 6 0 10 36 10 89 0 105 -8 116 -81 113
l-49 -2 0 45 c0 25 -4 45 -10 45 -6 0 -10 -55 -10 -145z"/>
<path d="M2320 515 c0 -13 -8 -29 -17 -35 -16 -9 -16 -11 -2 -20 12 -7 16 -26
16 -80 0 -40 6 -76 13 -85 17 -20 80 -20 80 0 0 10 -10 15 -30 15 -25 0 -30 5
-35 33 -4 18 -5 51 -3 72 3 37 5 40 36 43 17 2 32 7 32 12 0 5 -15 10 -32 12
-28 2 -34 8 -36 31 -4 34 -22 36 -22 2z"/>
<path d="M1943 483 c-41 -8 -24 -22 30 -25 48 -3 52 -5 52 -28 0 -22 -5 -26
-49 -32 -53 -7 -66 -19 -66 -58 0 -47 13 -55 95 -55 55 -1 75 2 75 12 0 7 -4
13 -10 13 -6 0 -10 30 -10 70 0 99 -25 121 -117 103z m85 -135 c-2 -28 -8 -34
-33 -39 -43 -8 -55 -1 -55 31 0 32 10 38 58 39 32 1 33 -1 30 -31z"/>
<path d="M2140 477 c-19 -10 -25 -20 -25 -47 0 -33 3 -36 47 -50 55 -18 73
-33 65 -54 -5 -12 -21 -16 -62 -16 -56 0 -73 -13 -32 -24 44 -12 87 -6 107 14
41 41 19 83 -50 100 -44 10 -51 15 -48 34 3 18 11 21 56 24 58 3 69 16 21 26
-43 8 -50 8 -79 -7z"/>
<path d="M2573 480 c-12 -5 -26 -18 -32 -29 -14 -25 -14 -116 -1 -141 12 -22
57 -34 94 -24 39 9 32 24 -12 24 -50 0 -62 14 -62 75 0 61 12 75 62 75 42 0
51 14 16 24 -29 7 -38 7 -65 -4z"/>
<path d="M2722 474 c-17 -12 -22 -24 -20 -47 3 -28 9 -34 51 -48 56 -19 72
-32 64 -53 -5 -12 -21 -16 -62 -16 -56 0 -73 -13 -32 -24 44 -12 87 -6 107 14
41 41 19 83 -50 100 -44 10 -51 15 -48 34 3 18 11 21 56 24 58 3 69 16 21 26
-47 9 -62 8 -87 -10z"/>
<path d="M2944 479 c-38 -11 -54 -43 -54 -109 0 -64 23 -90 79 -90 22 0 46 3
55 6 31 12 15 24 -32 24 -51 0 -72 12 -72 42 0 15 9 18 65 18 l65 0 0 31 c0
17 -4 39 -10 49 -13 25 -59 38 -96 29z m68 -44 c6 -14 9 -27 7 -29 -2 -2 -26
-6 -54 -7 -45 -3 -50 -1 -47 17 6 30 22 44 53 44 22 0 32 -7 41 -25z"/>
<path d="M3123 483 c-41 -8 -24 -23 26 -23 41 0 51 -4 56 -20 9 -29 0 -37 -51
-43 -25 -2 -51 -10 -56 -15 -14 -14 -13 -71 2 -86 11 -11 160 -17 160 -6 0 3
-4 10 -9 16 -5 5 -11 42 -13 83 -5 96 -24 111 -115 94z m85 -135 c-3 -30 -6
-33 -42 -36 -35 -3 -55 8 -56 30 0 18 35 38 66 38 34 0 35 -1 32 -32z"/>
<path d="M3363 475 c-20 -8 -35 -10 -38 -4 -17 27 -25 0 -25 -86 0 -78 3 -95
15 -95 12 0 15 15 15 75 l0 76 31 6 c17 3 33 12 36 20 8 21 1 23 -34 8z"/>
<path d="M3468 479 c-44 -17 -61 -90 -34 -154 11 -27 22 -35 49 -40 38 -7 77
1 77 16 0 5 -17 9 -39 9 -50 0 -66 20 -65 82 1 57 11 68 67 68 41 0 50 14 15
24 -29 7 -37 7 -70 -5z"/>
<path d="M1640 460 c-16 -16 -20 -33 -20 -80 0 -81 20 -102 92 -98 74 4 77 28
4 28 -51 0 -57 2 -66 26 -6 14 -10 27 -10 30 0 2 32 4 70 4 68 0 70 1 70 26 0
28 -16 65 -34 76 -23 16 -86 8 -106 -12z m102 -25 c6 -14 9 -27 7 -29 -10 -9
-100 -13 -105 -4 -3 5 2 20 10 33 23 35 72 35 88 0z"/>
<path d="M2450 379 c0 -76 3 -100 13 -97 8 3 13 35 15 101 3 83 2 97 -12 97
-14 0 -16 -15 -16 -101z"/>
</g>
</svg>
