<?xml version="1.0" standalone="no"?>
<!DOCTYPE svg PUBLIC "-//W3C//DTD SVG 20010904//EN"
 "http://www.w3.org/TR/2001/REC-SVG-20010904/DTD/svg10.dtd">
<svg version="1.0" xmlns="http://www.w3.org/2000/svg"
 width="864.000000pt" height="486.400000pt" viewBox="0 0 864.000000 486.400000"
 preserveAspectRatio="xMidYMid meet">
<metadata>
Created by potrace 1.13, written by Peter Selinger 2001-2015
</metadata>
<g transform="translate(0.000000,486.400000) scale(0.080000,-0.080000)"
fill="#000000" stroke="none">
<path d="M0 3040 l0 -3040 5400 0 5400 0 0 3040 0 3040 -5400 0 -5400 0 0
-3040z m6995 1680 c4 -6 11 -7 17 -4 7 4 8 2 4 -4 -4 -7 -3 -12 1 -12 5 0 14
-15 21 -34 10 -28 17 -33 40 -31 20 2 28 -2 28 -14 0 -9 4 -27 8 -41 5 -19 5
-21 -3 -10 -8 11 -11 12 -11 2 0 -8 8 -16 19 -19 13 -3 17 -11 14 -24 -3 -10
-1 -19 5 -19 6 0 14 -9 17 -20 4 -11 11 -18 16 -15 5 3 6 -2 2 -11 -4 -10 0
-22 11 -30 10 -7 15 -17 12 -22 -3 -6 -2 -12 3 -14 5 -1 22 -24 38 -50 17 -26
33 -44 37 -41 4 4 4 1 1 -7 -3 -9 8 -30 26 -50 16 -19 28 -30 25 -24 -3 6 1
11 9 11 11 0 12 -4 2 -21 -6 -12 -10 -25 -9 -29 1 -5 -2 -6 -8 -2 -6 3 -8 11
-5 16 4 5 2 9 -3 9 -4 0 -19 19 -32 42 -13 23 -40 66 -60 97 -20 31 -47 76
-61 101 -13 25 -26 47 -29 50 -28 28 -47 68 -38 83 6 11 5 23 -2 35 -11 16
-11 16 -6 -1 15 -47 -10 -32 -48 30 l-41 68 -140 5 -140 6 137 2 c84 1 139 -2
143 -8z m360 -561 c3 -12 11 -27 20 -31 8 -5 15 -15 15 -21 0 -7 6 -19 13 -25
6 -7 13 -17 13 -22 1 -6 2 -16 3 -22 1 -10 4 -9 10 1 7 10 11 6 16 -17 5 -23
11 -29 23 -25 13 4 14 3 3 -5 -12 -8 -11 -13 2 -32 11 -16 16 -18 21 -8 3 8 5
5 5 -7 -2 -35 1 -40 12 -25 8 12 9 10 4 -7 -3 -12 -1 -24 5 -28 5 -3 9 -36 8
-73 l-2 -67 -5 65 c-6 68 -14 84 -98 208 -24 34 -43 68 -43 75 -1 6 -11 25
-24 41 -14 16 -22 35 -19 43 7 18 12 12 18 -18z m109 -359 c9 0 3 -226 -6
-235 -2 -2 -96 -6 -209 -7 l-204 -3 0 35 0 35 -88 1 -88 1 6 -39 7 -39 -34 3
c-31 3 -33 6 -33 38 l0 35 -89 3 -89 3 7 -32 c3 -17 6 -42 6 -55 0 -19 6 -23
38 -27 l37 -4 -42 -1 c-36 -2 -42 1 -45 20 -2 17 -10 23 -28 23 -22 0 -25 4
-25 34 l0 34 -88 4 -87 4 6 -40 c6 -41 6 -41 -25 -41 -18 0 -31 5 -32 13 -1 6
-2 23 -2 37 -2 24 -4 24 -89 26 l-88 2 6 -39 c6 -38 6 -39 -24 -39 -28 0 -31
3 -34 38 l-3 37 -88 1 -88 2 6 -39 c7 -38 6 -39 -24 -39 -29 0 -31 2 -31 38
l0 38 -91 0 -91 0 6 -38 c6 -38 6 -38 -29 -38 l-35 0 0 55 0 55 -79 0 -80 0
-3 -52 c-3 -49 -5 -53 -30 -56 -20 -2 -28 2 -33 18 -4 12 -14 20 -23 18 -9 -1
-24 2 -32 7 -17 11 -176 10 -205 -1 -11 -5 -29 -16 -40 -26 -18 -17 -41 -18
-336 -16 -302 3 -317 2 -302 -14 15 -17 14 -20 -3 -39 l-19 -22 -635 7 c-349
4 -638 10 -641 14 -4 4 -9 34 -11 67 l-3 60 213 0 213 0 -25 21 c-24 22 -24
22 -5 43 l19 21 -212 2 -213 3 -3 33 c-2 19 -1 41 3 50 5 14 207 15 2143 9
1175 -4 2141 -7 2146 -7z m-1830 -196 c36 -14 12 -24 -54 -24 -64 0 -81 6 -63
23 8 9 96 9 117 1z m242 -80 c-3 -8 -16 -13 -28 -13 l-23 2 23 4 c18 4 22 12
23 41 2 32 3 33 6 9 3 -16 2 -35 -1 -43z m690 0 c-4 -10 -24 -14 -75 -14 -38
0 -72 3 -74 8 -3 4 27 7 66 7 l72 0 4 35 c5 33 5 34 9 7 2 -16 1 -35 -2 -43z
m-460 0 c-4 -10 -20 -13 -58 -12 l-53 2 53 3 c51 4 52 5 53 36 1 25 3 27 6 9
3 -13 2 -30 -1 -38z m230 0 c-4 -10 -20 -13 -53 -12 l-48 2 48 3 c43 4 47 6
48 31 1 18 3 21 6 9 3 -10 2 -25 -1 -33z m1167 -114 c-12 -14 -19 -15 -39 -6
-34 16 -30 23 15 23 35 0 37 -1 24 -17z m-6300 -567 c-46 -2 -120 -2 -165 0
-46 1 -9 3 82 3 91 0 128 -2 83 -3z m-293 -512 c0 -267 -4 -491 -8 -498 -4 -6
-6 188 -4 432 2 308 0 445 -7 450 -6 3 -11 16 -10 28 0 21 1 21 9 2 7 -16 9
-11 9 21 1 22 -5 46 -11 53 -11 10 -10 11 5 6 16 -7 17 -39 17 -494z m413 237
c-6 -520 -7 -548 -32 -602 -59 -132 -165 -201 -342 -221 -69 -8 -179 9 -231
36 -107 55 -197 198 -153 243 22 21 41 7 51 -37 24 -114 106 -178 247 -192
l67 -7 0 516 0 516 198 0 197 0 -2 -252z m1892 112 c-11 -5 -35 -9 -52 -9 -19
-1 -33 -6 -33 -13 0 -9 -4 -8 -10 2 -8 12 -1 16 38 21 70 9 79 9 57 -1z m1441
1 c-18 -7 -16 -9 14 -19 18 -7 31 -14 29 -16 -7 -7 -59 6 -59 15 0 5 -10 9
-22 10 -22 1 -22 1 2 9 32 10 62 11 36 1z m-964 -31 c20 -10 39 -16 43 -12 4
4 6 1 3 -7 -2 -8 3 -23 11 -32 32 -35 38 -45 45 -72 7 -31 23 -36 28 -9 3 14
5 13 10 -6 3 -12 2 -20 -3 -16 -5 3 -9 -4 -9 -15 0 -12 -5 -21 -11 -21 -6 0
-8 7 -5 16 3 8 2 12 -4 9 -6 -3 -10 1 -10 11 0 64 -103 164 -169 164 -16 0
-32 4 -36 9 -9 15 65 1 107 -19z m-406 -5 c22 -21 30 -23 43 -13 14 12 14 11
2 -5 -11 -14 -11 -21 -3 -29 9 -9 12 -8 12 5 0 21 8 21 32 0 18 -16 21 -16 47
0 16 9 33 17 38 17 4 0 -7 -9 -25 -20 -40 -25 -51 -25 -69 -2 -14 16 -14 16
-9 0 9 -29 -11 -30 -34 -1 -22 29 -65 58 -96 66 -14 3 -11 5 8 6 16 1 38 -9
54 -24z m1249 18 c-11 -3 -24 -8 -30 -13 -5 -4 -19 -10 -30 -14 -20 -7 -20 -7
0 13 12 11 33 20 50 19 21 0 24 -2 10 -5z m3820 -13 c10 -12 24 -19 29 -17 6
3 11 -6 11 -18 l0 -23 -22 24 c-13 14 -29 22 -42 19 -20 -4 -29 14 -14 28 10
11 19 8 38 -13z m-2020 -10 c4 -6 11 -8 16 -5 5 4 9 2 9 -3 0 -6 8 -9 18 -8 9
0 16 -4 15 -11 -2 -7 7 -18 19 -24 44 -24 98 -78 98 -99 0 -13 1 -13 10 0 9
13 11 13 20 0 6 -9 6 -18 0 -24 -13 -13 -13 -29 0 -21 6 3 10 4 10 1 0 -3 -4
-7 -10 -11 -5 -3 -18 12 -30 35 -11 22 -25 40 -30 40 -6 0 -10 7 -10 15 0 8
-9 19 -21 25 -34 19 -69 52 -63 62 3 4 0 8 -5 8 -6 0 -11 -4 -11 -10 0 -5 -5
-10 -11 -10 -5 0 -8 4 -5 9 3 5 -13 12 -36 15 -32 5 -39 9 -28 16 20 13 37 12
45 0z m3752 -35 c19 -18 32 -39 28 -44 -9 -15 -25 -14 -20 2 2 6 -6 24 -20 40
-18 20 -34 28 -65 29 -22 1 -40 6 -40 11 0 22 82 -4 117 -38z m-7087 19 c-6
-6 -7 -14 -3 -17 3 -4 12 1 20 11 10 13 13 14 11 2 -3 -17 -28 -39 -43 -40 -5
0 -3 5 5 10 10 6 11 10 3 10 -7 0 -13 7 -13 16 0 9 -5 12 -12 8 -6 -4 -8 -3
-5 2 3 5 15 10 26 10 14 0 17 -4 11 -12z m1769 0 c2 -2 9 0 15 6 8 6 12 1 11
-19 0 -19 -4 -27 -12 -24 -7 3 -10 9 -7 14 3 5 -3 12 -13 15 -10 3 -27 10 -38
15 -15 6 -12 7 10 2 17 -3 32 -7 34 -9z m751 -8 c11 -18 11 -19 -1 -9 -8 6
-30 16 -49 21 l-35 10 36 -1 c25 0 40 -6 49 -21z m504 3 c-6 -10 43 -2 61 11
16 10 56 10 49 -1 -3 -5 -14 -7 -25 -4 -11 4 -19 2 -19 -4 0 -6 -9 -11 -20
-11 -11 0 -20 -4 -20 -10 0 -6 -11 -5 -26 2 -15 7 -21 14 -15 16 6 2 8 9 5 14
-4 7 -2 8 5 4 6 -4 9 -12 5 -17z m742 -8 c8 12 34 14 159 9 101 -4 153 -3 158
4 6 8 10 7 14 -1 2 -7 13 -13 23 -13 29 0 42 -25 35 -66 -8 -52 -17 -58 -11
-7 7 63 0 66 -188 67 -90 1 -162 4 -159 9 8 13 -8 8 -24 -8 -18 -18 -43 -4
-43 24 1 11 5 9 14 -8 11 -19 15 -21 22 -10z m494 -6 c0 -5 -4 -3 -10 5 -5 8
-10 12 -12 10 -2 -3 -8 -14 -14 -24 -5 -11 -20 -26 -32 -34 -20 -13 -22 -13
-16 2 3 9 11 16 18 16 6 0 19 14 29 32 15 25 20 29 28 17 5 -7 9 -18 9 -24z
m165 25 c-3 -5 3 -10 15 -10 24 0 22 -23 -2 -28 -15 -3 -31 31 -20 42 9 10 14
7 7 -4z m859 -14 c-3 -9 -11 -13 -17 -9 -6 4 -8 0 -4 -10 6 -16 -26 -124 -42
-140 -5 -5 -11 -1 -15 8 -3 9 -2 13 4 10 6 -3 10 0 10 8 0 8 9 34 19 58 11 24
17 46 13 49 -11 8 -14 32 -3 26 5 -3 14 1 21 9 15 19 23 14 14 -9z m476 14 c0
-5 -6 -10 -14 -10 -8 0 -16 -6 -19 -12 -4 -10 -7 -10 -18 0 -21 19 -38 15 -34
-9 3 -12 1 -19 -2 -15 -24 24 4 59 30 38 8 -7 18 -6 31 4 23 17 26 17 26 4z
m270 -30 c9 6 50 -20 50 -32 0 -6 -9 -3 -21 8 -12 10 -24 18 -28 18 -17 -3
-31 10 -31 30 0 20 1 20 13 -3 6 -13 14 -22 17 -21z m-5783 19 c37 -14 79 -54
93 -90 l12 -29 47 38 c89 74 119 87 196 87 85 0 121 -21 156 -92 22 -46 23
-60 30 -398 4 -192 4 -354 0 -358 -4 -4 -72 -6 -152 -5 l-144 3 3 340 c2 187
-1 354 -6 370 -12 41 -33 42 -76 5 l-36 -32 0 -344 0 -344 -150 0 -150 0 -2
372 c-3 418 -2 409 -72 348 l-36 -32 0 -344 0 -344 -150 0 -150 0 0 415 0 415
150 0 150 0 0 -41 0 -40 43 35 c83 68 173 92 244 65z m1435 -5 c137 -46 221
-221 204 -424 -18 -219 -128 -344 -301 -343 -78 0 -149 28 -194 77 -14 14 -29
26 -34 26 -6 0 -8 -44 -4 -120 l7 -120 -170 0 -170 0 0 445 0 445 171 0 172 0
-7 -41 -7 -41 44 36 c90 74 189 95 289 60z m2978 0 c-58 -8 -148 -8 -143 -1 2
4 41 6 86 6 45 -1 71 -3 57 -5z m1930 0 c-35 -7 -183 -10 -165 -3 11 4 56 7
100 7 44 0 73 -2 65 -4z m-4443 -21 c21 13 5 -31 -20 -59 -16 -16 -35 -43 -43
-61 -9 -17 -23 -34 -32 -38 -14 -5 -14 -4 0 12 8 10 13 25 11 33 -4 13 -3 13
6 0 9 -13 11 -12 11 4 0 10 9 27 21 37 11 10 18 22 15 28 -4 5 -2 13 4 16 6 4
8 16 5 28 -5 16 -4 18 3 8 5 -7 14 -11 19 -8z m293 7 c0 -5 10 -10 23 -10 55
-1 157 -66 157 -101 0 -33 -20 -30 -80 12 -94 66 -190 67 -190 2 0 -35 13 -56
111 -175 120 -145 158 -199 180 -258 38 -100 21 -189 -51 -261 -57 -57 -124
-81 -229 -80 -108 0 -250 60 -266 112 -9 26 10 48 29 34 135 -95 193 -117 246
-95 35 14 39 42 13 80 -9 14 -53 70 -98 125 -116 144 -133 168 -167 242 -71
150 -16 297 128 348 27 9 56 21 64 25 21 12 130 12 130 0z m155 -8 c0 -15 16
-29 40 -34 12 -2 16 -6 9 -10 -13 -9 -86 41 -78 54 8 12 29 5 29 -10z m683 9
c9 -5 41 -19 70 -32 129 -56 231 -232 232 -401 l0 -38 -225 0 -225 0 0 -144
c0 -80 4 -156 10 -170 15 -41 50 -51 117 -36 82 18 134 51 210 136 37 41 72
74 80 74 8 0 13 -12 13 -31 0 -43 -112 -154 -195 -195 -54 -26 -70 -29 -156
-29 -89 0 -100 2 -163 34 -241 123 -291 492 -97 713 41 46 145 108 182 108 10
0 21 5 24 10 8 12 99 13 123 1z m1118 -17 c27 -29 31 -75 9 -94 -12 -10 -24
-10 -54 -1 -21 6 -49 11 -62 11 -46 0 -112 -53 -160 -127 -20 -31 -20 -44 -17
-328 2 -198 0 -296 -7 -299 -6 -2 -82 -4 -168 -3 l-157 0 0 414 0 413 169 0
170 0 -6 -72 -5 -73 63 68 c66 69 136 115 178 116 13 1 34 -10 47 -25z m959 4
c3 -16 -57 -147 -204 -442 -203 -409 -208 -419 -223 -395 -9 13 -100 175 -203
359 -103 184 -205 363 -226 398 l-39 62 203 0 203 0 114 -215 c62 -118 116
-215 120 -215 7 0 170 351 170 365 0 3 10 29 21 56 24 54 55 67 64 27z m573
13 c9 -5 41 -19 71 -32 68 -30 127 -88 169 -168 34 -62 62 -168 62 -233 l0
-38 -226 0 -225 0 3 -160 c4 -189 7 -196 91 -194 83 2 156 44 240 136 39 43
77 78 84 78 8 0 13 -12 13 -31 0 -25 -13 -44 -67 -98 -94 -93 -161 -125 -275
-129 -81 -4 -93 -2 -153 26 -255 120 -316 497 -116 724 41 46 145 108 183 108
10 0 18 5 18 10 0 12 104 13 128 1z m1118 -17 c45 -48 23 -114 -33 -99 -107
26 -144 10 -225 -100 l-29 -40 2 -300 2 -300 -164 0 -164 0 -3 413 -2 412 170
0 170 0 -6 -72 -6 -73 63 68 c66 69 136 115 178 116 13 1 34 -10 47 -25z
m-8517 -333 c1 -140 -1 -252 -3 -250 -2 2 -6 139 -8 304 -3 165 -2 278 2 250
5 -27 9 -164 9 -304z m353 20 c-3 -181 -2 -345 2 -365 13 -69 75 -67 159 5
l49 42 -4 323 -3 324 168 0 167 0 0 -415 0 -415 -167 2 -168 3 3 53 c2 28 1
52 -3 52 -3 0 -34 -20 -68 -44 -80 -56 -144 -79 -221 -80 -110 -1 -182 41
-223 133 -15 31 -18 86 -21 374 l-4 337 169 0 169 0 -4 -329z m172 223 l4 -99
-13 95 c-11 85 -11 119 1 108 2 -3 5 -49 8 -104z m3948 73 c-15 -12 -30 -25
-33 -30 -4 -5 -10 -4 -13 2 -4 6 -12 8 -18 5 -7 -4 -8 -2 -4 5 4 6 11 9 16 6
13 -8 61 25 54 36 -3 5 2 6 10 3 13 -5 11 -10 -12 -27z m3827 -12 c1 6 11 16
24 24 21 13 21 12 -3 -13 -13 -15 -30 -24 -37 -22 -7 3 -10 -1 -6 -10 3 -7 1
-14 -5 -14 -11 0 -9 26 3 55 9 19 9 19 16 -5 4 -14 7 -20 8 -15z m-1419 4 c0
-11 -4 -17 -10 -14 -5 3 -10 -3 -10 -13 0 -11 -7 -25 -16 -33 -9 -7 -13 -21
-10 -33 3 -12 1 -28 -4 -36 -9 -13 -10 -13 -10 0 0 10 -6 7 -19 -9 -10 -14
-17 -32 -14 -40 4 -13 3 -14 -5 -2 -7 10 -4 24 12 50 13 20 26 46 30 59 4 12
12 22 17 22 5 0 9 11 9 25 0 14 5 25 11 25 5 0 7 5 4 10 -3 6 -1 10 4 10 6 0
11 -9 11 -21z m-3566 -19 c4 0 4 6 0 13 -6 9 -5 9 8 0 8 -7 18 -11 22 -8 3 3
2 -1 -4 -7 -13 -15 -13 -31 0 -23 6 3 10 4 10 1 0 -19 -22 -10 -51 22 -19 20
-25 29 -13 19 11 -9 24 -17 28 -17z m4558 -380 c0 -204 -3 -374 -7 -378 -4 -4
-4 27 -1 68 3 41 2 62 -2 46 -4 -16 -6 107 -5 275 2 378 2 374 9 366 4 -3 6
-173 6 -377z m-3976 358 c5 -7 2 -9 -9 -5 -9 3 -18 0 -21 -9 -4 -10 -2 -12 6
-8 8 5 9 2 5 -9 -3 -9 -1 -19 5 -23 6 -4 8 -3 5 2 -3 6 -2 16 4 24 6 11 9 11
10 3 1 -7 2 -17 3 -23 0 -5 10 -16 21 -24 17 -13 17 -15 3 -16 -9 0 -18 -5
-20 -12 -3 -7 -12 -2 -26 12 -12 13 -19 27 -16 32 3 4 -2 11 -10 14 -20 8 -20
18 0 38 18 19 30 20 40 4z m501 -21 c-12 -12 -35 -41 -50 -64 -15 -24 -29 -43
-30 -43 -3 0 -2 63 2 84 0 4 7 6 15 3 8 -3 22 5 32 18 10 13 21 22 26 19 4 -3
8 0 8 6 0 6 4 8 10 5 6 -3 0 -16 -13 -28z m1543 -20 c-10 -9 -12 -8 -7 6 4 10
3 15 -2 12 -13 -7 -24 12 -16 26 5 6 13 2 22 -11 12 -17 13 -24 3 -33z m481
17 l7 -29 2 30 2 30 10 -28 c6 -16 14 -24 21 -21 9 5 9 4 0 -6 -6 -7 -9 -18
-7 -25 3 -7 0 -16 -7 -21 -8 -4 -10 -3 -5 4 4 7 2 12 -5 12 -8 0 -7 5 2 17 12
15 12 16 -4 10 -12 -5 -19 -1 -23 11 -3 9 -10 25 -15 36 -8 14 -7 17 3 14 7
-3 16 -18 19 -34z m1215 -7 c11 -21 24 -34 28 -30 4 5 7 1 5 -7 -3 -22 28 -87
33 -69 3 8 4 4 2 -7 -2 -13 2 -24 11 -28 10 -3 15 1 16 12 0 9 3 12 5 6 3 -7
-2 -27 -9 -45 -10 -23 -15 -27 -15 -14 1 21 -81 175 -111 209 -13 16 -13 18
-1 14 8 -2 24 -21 36 -41z m-2411 -321 c0 -195 -3 -352 -7 -349 -15 8 -9 703
6 703 0 0 1 -159 1 -354z m-4118 -158 c-1 -95 -3 -20 -3 167 0 187 2 265 3
173 2 -92 2 -245 0 -340z m2926 442 c11 -13 10 -13 -6 -1 -9 8 -21 11 -24 7
-4 -4 -1 -12 7 -17 13 -9 13 -10 0 -6 -8 2 -14 11 -14 20 1 9 -11 21 -27 28
-16 6 -29 16 -29 21 0 12 77 -31 93 -52z m112 15 c1 -28 -1 -32 -12 -23 -7 6
-17 8 -20 4 -4 -4 -1 -11 7 -16 23 -14 8 -18 -18 -5 l-23 12 32 15 c17 9 26
18 20 22 -5 4 -8 13 -4 22 8 22 16 9 18 -31z m2499 -10 c-4 -8 -1 -15 5 -15 6
0 11 6 11 13 0 6 5 4 11 -6 5 -9 7 -23 2 -30 -4 -6 -8 -14 -9 -17 -3 -15 -24
-60 -28 -60 -7 0 5 32 17 48 6 8 5 12 -4 12 -10 1 -8 4 4 11 9 5 17 15 17 21
0 7 -5 6 -15 -2 -8 -7 -15 -11 -16 -9 0 2 -2 24 -4 49 -4 35 -2 40 5 22 5 -12
7 -29 4 -37z m-5125 3 c-2 -41 -2 -42 -8 -10 l-6 33 -18 -21 c-14 -16 -15 -25
-7 -35 8 -9 8 -15 0 -20 -6 -4 -10 -88 -11 -238 0 -128 -4 -254 -7 -282 -4
-27 -7 87 -7 255 l0 305 30 28 c16 15 31 27 32 27 2 0 2 -19 2 -42z m408 -265
l-1 -308 -5 287 c-4 157 -9 290 -13 294 -7 6 8 34 17 34 2 0 3 -138 2 -307z
m540 -251 c-1 -103 -2 -18 -2 188 0 206 1 291 2 187 2 -103 2 -271 0 -375z
m3444 529 c-6 -10 -7 -21 -3 -25 3 -4 -1 -4 -9 -1 -11 4 -18 -1 -22 -14 -3
-12 -11 -21 -19 -21 -10 0 -9 3 2 10 12 8 11 10 -7 10 -12 0 -25 5 -28 10 -3
6 -15 10 -25 10 -10 0 -20 6 -23 13 -3 9 -8 9 -21 -2 -14 -12 -16 -12 -10 3 8
21 22 20 62 -4 30 -19 35 -19 62 -5 17 9 30 20 30 25 0 6 5 10 10 10 7 0 7 -6
1 -19z m-4022 -22 c-11 -7 -11 -9 1 -9 13 0 13 -1 0 -10 -14 -9 -7 -14 15 -11
6 1 2 -5 -7 -12 -16 -13 -18 -36 -16 -253 l2 -239 6 240 6 240 1 -230 c1 -126
-2 -254 -6 -282 -4 -29 -4 -55 1 -57 5 -2 3 -3 -4 -2 -10 2 -13 67 -13 298 0
195 -3 294 -10 290 -5 -3 -4 1 2 10 7 8 10 18 7 21 -10 9 6 28 18 21 6 -4 5
-10 -3 -15z m3836 10 c-4 -6 1 -17 11 -25 18 -14 17 -14 -4 -4 -27 13 -45 4
-22 -10 11 -7 11 -10 2 -10 -22 0 -26 30 -6 45 23 17 27 18 19 4z m-4801 -283
c0 -151 -2 -269 -6 -263 -9 14 -11 553 -2 544 4 -3 7 -130 8 -281z m6067 269
c7 17 8 18 8 2 1 -9 -8 -25 -18 -34 -11 -9 -18 -20 -15 -25 3 -4 1 -16 -5 -25
-8 -15 -10 -14 -7 7 1 14 6 31 10 38 4 7 5 22 1 35 -6 21 -5 21 6 2 12 -19 12
-19 20 0z m-4689 -40 c3 3 3 -6 0 -21 -5 -25 -5 -25 -18 12 -17 48 -17 69 0
31 7 -15 15 -25 18 -22z m1089 -10 c14 -30 21 -56 16 -58 -5 -1 -11 -32 -13
-67 -6 -85 -14 -90 -14 -9 0 36 5 70 10 75 12 12 -7 67 -20 59 -4 -2 -7 1 -7
8 0 7 -4 20 -8 30 -4 9 -3 17 1 17 5 0 20 -25 35 -55z m1650 0 c5 4 9 0 9 -7
0 -7 3 -24 6 -38 3 -16 -4 -8 -19 20 -14 25 -22 50 -19 55 4 6 8 0 10 -13 2
-12 8 -20 13 -17z m3302 21 c4 -10 1 -13 -9 -9 -9 3 -14 -2 -14 -17 0 -13 -8
-24 -19 -27 -13 -3 -17 -11 -14 -26 4 -18 3 -19 -6 -7 -15 21 -14 23 14 56 14
16 25 32 25 37 0 13 18 7 23 -7z m-1875 -8 c-2 -7 2 -12 9 -11 7 2 10 -4 7
-12 -4 -8 -1 -15 5 -15 6 0 11 -5 11 -11 0 -17 47 -69 55 -61 4 4 2 -4 -5 -18
-9 -18 -10 -25 -1 -28 6 -2 9 -7 6 -12 -3 -5 2 -15 10 -24 8 -8 11 -17 6 -20
-10 -7 -47 73 -43 94 2 8 0 12 -4 7 -8 -8 -73 103 -67 116 6 12 13 8 11 -5z
m-798 -13 c-7 -8 -9 -22 -6 -31 5 -14 4 -15 -8 -5 -12 10 -15 7 -21 -18 -4
-17 -11 -34 -17 -38 -12 -7 -11 -3 18 65 10 23 25 42 33 42 11 0 11 -3 1 -15z
m-5183 -227 c-1 -46 -3 -11 -3 77 0 88 2 125 3 83 2 -42 2 -114 0 -160z m3480
212 c4 -13 3 -13 -6 0 -5 8 -13 11 -17 7 -9 -9 12 -32 29 -32 7 0 12 -7 12
-15 0 -8 10 -26 22 -40 12 -14 31 -36 42 -49 12 -13 21 -29 21 -35 -1 -6 -13
5 -28 24 -15 19 -50 62 -78 95 -49 58 -50 61 -26 60 14 0 27 -7 29 -15z
m-2450 -222 c-1 -46 -3 -11 -3 77 0 88 2 125 3 83 2 -42 2 -114 0 -160z m2796
219 c7 4 4 -5 -6 -20 -10 -15 -15 -31 -12 -36 2 -5 -1 -11 -8 -14 -10 -4 -13
-30 -12 -101 1 -93 -11 -109 -20 -29 -3 21 -8 52 -11 68 -9 44 4 26 14 -21 9
-36 9 -34 9 26 -1 58 23 155 31 130 2 -6 9 -7 15 -3z m2466 -23 c4 3 7 -3 7
-13 0 -12 -8 -17 -27 -16 -15 0 -25 4 -22 8 3 5 11 6 19 3 10 -4 13 1 11 17
-2 12 -2 16 0 9 3 -7 8 -10 12 -8z m-4487 -347 c2 -92 0 -167 -4 -167 -5 0 -7
114 -6 253 2 254 6 224 10 -86z m1231 298 c-3 -8 0 -15 5 -15 6 0 10 -18 10
-40 l0 -41 -14 27 c-16 30 -19 46 -4 24 8 -13 10 -13 10 2 0 9 -4 19 -9 23 -6
3 -9 14 -8 25 1 10 5 17 9 14 4 -3 5 -11 1 -19z m3212 -33 c-3 -17 -13 -33
-20 -36 -8 -3 -12 -12 -9 -20 3 -8 1 -17 -5 -21 -15 -9 -14 -28 2 -19 7 4 9 3
4 -2 -5 -5 -10 -7 -13 -4 -2 3 -14 -11 -28 -30 -17 -25 -21 -39 -14 -47 11
-14 7 -16 -14 -8 -11 5 -7 20 19 73 18 37 37 73 43 79 6 7 10 14 9 15 -2 7 25
58 29 54 2 -3 1 -18 -3 -34z m1001 4 c-3 -14 -2 -28 4 -31 14 -9 8 -135 -7
-135 -6 0 -13 -6 -16 -12 -2 -7 -8 -10 -12 -5 -5 4 0 13 10 21 15 11 17 22 12
67 -4 35 -3 47 3 34 8 -20 9 -20 9 1 1 12 -6 27 -14 34 -17 14 -21 35 -5 25 6
-3 10 1 10 9 0 9 3 16 6 16 3 0 3 -11 0 -24z m-1648 -26 c7 -12 10 -25 7 -31
-4 -5 5 -19 19 -30 15 -11 23 -25 20 -30 -3 -6 1 -16 9 -22 8 -7 27 -36 42
-65 15 -29 31 -54 35 -57 5 -3 11 -19 15 -35 4 -17 10 -30 15 -30 13 0 20 -29
8 -36 -7 -5 -8 -2 -3 6 6 10 4 12 -9 7 -10 -4 -15 -3 -11 3 3 5 -1 22 -9 38
-8 16 -13 32 -11 34 3 3 -7 11 -21 18 -17 9 -24 20 -21 32 3 10 1 18 -5 18 -5
0 -6 4 -3 10 3 5 -10 26 -29 45 -25 24 -33 40 -29 53 6 14 4 15 -8 5 -15 -12
-15 -13 -20 45 -1 9 -6 23 -12 30 -5 6 -5 12 -1 12 5 0 15 -9 22 -20z m-431
-247 c-1 -49 -3 -9 -3 87 0 96 2 136 3 88 2 -49 2 -127 0 -175z m-572 218 c-7
-24 4 -73 16 -65 5 3 6 -2 3 -10 -3 -9 -10 -16 -14 -16 -10 0 -23 87 -15 100
10 17 17 11 10 -9z m3212 -223 c-1 -46 -3 -11 -3 77 0 88 2 125 3 83 2 -42 2
-114 0 -160z m-4897 63 c0 -3 -4 0 -9 8 -7 11 -13 7 -25 -20 -11 -24 -15 -27
-11 -9 3 14 9 40 12 59 l6 33 13 -32 c8 -18 14 -35 14 -39z m759 -15 l-1 -51
-9 38 c-5 21 -14 47 -19 58 -6 11 -8 25 -4 31 14 22 34 -25 33 -76z m501 54
c-11 -6 -17 -35 -21 -97 l-6 -88 -1 98 c-2 94 -1 97 21 97 18 0 19 -2 7 -10z
m293 3 c-40 -2 -107 -2 -150 0 -43 1 -10 3 72 3 83 0 118 -2 78 -3z m1981 -43
c6 -42 6 -44 -8 -25 -15 19 -15 19 -16 1 0 -11 -3 -16 -7 -13 -3 4 0 25 7 47
7 22 14 39 15 38 1 -2 5 -23 9 -48z m753 30 c3 -11 2 -12 -4 -3 -6 8 -50 13
-133 16 l-125 3 129 -1 c106 0 130 -3 133 -15z m-390 -187 c-2 -38 -3 -7 -3
67 0 74 1 105 3 68 2 -38 2 -98 0 -135z m-8270 155 c-10 -5 -22 -19 -27 -31
l-9 -22 0 22 c-1 21 37 58 48 47 3 -3 -2 -10 -12 -16z m4661 -33 c41 -53 52
-72 32 -60 -16 10 -12 -6 8 -29 14 -17 14 -18 1 -8 -14 10 -18 10 -23 -3 -6
-17 -36 -21 -36 -4 0 5 5 7 10 4 6 -3 10 -2 10 4 0 5 -4 13 -10 16 -5 3 -10
12 -10 18 0 7 5 4 11 -5 5 -10 15 -18 20 -18 6 0 2 15 -9 33 -11 17 -18 37
-15 44 2 6 -5 16 -15 22 -11 6 -22 17 -26 26 -11 29 9 13 52 -40z m3972 34 c0
-5 5 -7 12 -3 8 5 9 2 5 -11 -6 -15 -3 -17 25 -11 24 4 29 3 18 -4 -13 -9 -13
-12 3 -24 15 -11 17 -22 11 -51 -4 -22 -10 -32 -14 -25 -4 7 -10 -2 -14 -24
-4 -23 -13 -36 -22 -36 -14 0 -14 2 -1 15 32 32 28 133 -5 136 -29 3 -44 -4
-68 -32 -23 -26 -26 -27 -26 -9 0 11 4 20 9 20 4 0 6 4 3 9 -3 5 10 12 30 16
35 6 35 7 18 26 -16 17 -16 19 -1 19 10 0 17 -5 17 -11z m-3371 -51 c7 1 10
-2 6 -8 -4 -6 -1 -18 7 -27 12 -15 11 -15 -8 -5 -25 13 -34 33 -33 70 1 27 1
27 8 -3 4 -17 13 -29 20 -27z m2331 38 c0 -8 -6 -21 -13 -28 -13 -14 -39 -66
-42 -83 -3 -24 -25 -65 -36 -65 -6 0 -9 -6 -6 -12 2 -7 10 -12 16 -10 7 1 9
-3 6 -9 -5 -7 -11 -7 -17 -1 -7 7 -19 -5 -36 -39 -14 -27 -29 -49 -33 -49 -8
0 47 107 68 131 8 9 13 20 11 25 -3 12 52 117 66 126 6 4 7 8 3 8 -5 0 -5 5
-2 10 9 14 15 12 15 -4z m-1554 -90 c-3 -56 -11 -76 -27 -76 -5 0 -3 13 6 30
19 36 19 70 1 95 -10 14 -21 17 -51 12 -33 -5 -36 -5 -19 7 10 8 25 11 33 8
10 -4 12 -1 6 8 -5 8 5 4 23 -8 29 -21 31 -26 28 -76z m-1719 39 c0 -8 -5 -15
-11 -15 -6 0 -5 -5 2 -12 14 -14 16 -32 3 -23 -5 3 -16 -4 -24 -16 -27 -37
-25 2 2 43 28 43 28 43 28 23z m-2935 -91 c12 -3 24 -1 28 6 4 7 13 9 20 5 8
-5 2 -12 -20 -21 -54 -23 -57 -20 -57 49 0 50 1 53 4 15 3 -37 9 -48 25 -54z
m4508 76 c0 -5 8 -6 17 -3 11 4 6 -9 -17 -40 -18 -26 -35 -47 -37 -47 -8 0 4
26 20 44 19 22 22 36 7 36 -5 0 -10 5 -10 10 0 6 5 10 10 10 6 0 10 -4 10 -10z
m2646 -25 c-2 -19 -9 -41 -16 -50 -13 -16 -108 -80 -119 -80 -3 0 -10 -3 -16
-6 -5 -4 -27 -9 -47 -13 -35 -6 -38 -5 -37 16 1 18 2 19 6 5 3 -11 10 -16 20
-13 8 3 22 6 31 6 15 0 15 2 2 10 -12 8 -11 10 5 8 39 -3 61 2 47 10 -9 7 -8
13 8 27 18 16 23 17 30 5 9 -14 14 -7 11 14 -1 5 5 6 13 3 18 -7 62 48 46 58
-8 5 5 32 17 35 1 0 0 -16 -1 -35z m-8393 -20 c20 -36 23 -46 12 -55 -10 -8
-15 -8 -21 1 -4 7 -3 9 4 5 6 -3 13 -2 16 3 3 5 -5 12 -19 15 -14 4 -25 11
-25 17 0 8 5 7 15 -1 13 -11 13 -8 0 24 -21 49 -12 45 18 -9z m4616 -69 c-9
-8 -10 -8 -5 2 5 8 -1 21 -15 33 -12 10 -18 19 -14 19 5 0 4 5 -3 12 -7 7 -12
16 -12 22 0 5 14 -10 31 -34 24 -33 28 -45 18 -54z m3185 53 c-3 -5 -1 -9 4
-9 6 0 12 -7 16 -15 8 -21 0 -19 -24 7 -11 12 -20 31 -20 42 1 20 1 20 15 2 8
-10 12 -23 9 -27z m-7190 4 c-4 -16 -16 -35 -27 -44 -11 -9 -17 -21 -13 -28 4
-6 2 -9 -7 -5 -8 3 -17 -2 -21 -12 -9 -24 0 -29 21 -13 15 11 15 10 -1 -9 -18
-21 -43 -32 -32 -13 4 5 1 11 -6 13 -8 3 2 19 25 44 20 21 42 51 48 67 6 15
13 27 15 27 3 0 1 -12 -2 -27z m250 -75 c10 -15 16 -33 13 -40 -3 -8 -9 -2
-17 14 -7 15 -17 25 -23 21 -6 -3 -7 -1 -3 5 4 6 2 20 -3 30 -5 10 -7 30 -3
43 6 22 7 21 12 -11 3 -19 14 -47 24 -62z m4121 15 c-3 -15 -10 -22 -15 -17
-5 5 -4 25 3 47 9 31 13 34 15 17 2 -12 1 -33 -3 -47z m168 40 c-4 -10 -2 -14
4 -10 6 4 22 -8 35 -26 34 -45 41 -57 30 -57 -4 0 -19 18 -31 41 -22 39 -43
50 -22 12 7 -15 7 -20 -2 -20 -7 0 -13 7 -14 16 -1 9 -4 28 -7 44 -2 15 0 25
4 22 5 -3 6 -13 3 -22z m-660 -3 c9 -10 7 -10 -7 0 -18 14 -19 13 -13 -10 l6
-25 -19 23 c-10 13 -22 22 -25 22 -3 -1 -11 1 -18 4 -6 3 5 4 26 2 21 -1 43
-9 50 -16z m1965 -47 c-1 -38 1 -76 6 -85 5 -12 0 -24 -18 -43 -25 -25 -27
-25 -191 -25 -91 0 -165 3 -165 8 0 4 68 6 152 5 83 -1 161 0 173 3 23 6 53
54 35 54 -6 0 -10 33 -10 75 0 45 4 75 10 75 7 0 10 -26 8 -67z m-6564 -3 c21
-28 41 -50 45 -50 4 0 20 -13 37 -28 20 -20 47 -32 87 -40 71 -14 106 -31 65
-32 -16 0 -28 5 -28 11 0 8 -14 10 -42 6 -27 -4 -37 -2 -27 4 11 7 8 9 -11 9
-14 0 -31 9 -37 19 -8 13 -21 18 -38 17 -19 -3 -23 0 -15 9 8 10 7 15 -1 21
-7 4 -15 2 -17 -5 -5 -14 -32 5 -32 23 0 6 4 4 10 -4 5 -8 12 -11 15 -8 4 4 0
17 -9 30 -9 12 -16 17 -16 10 0 -10 -4 -9 -16 2 -8 9 -12 20 -9 26 3 6 -1 13
-9 16 -9 3 -16 10 -16 15 0 18 28 -4 64 -51z m5586 17 c0 -18 4 -38 9 -46 8
-12 12 -12 26 2 19 19 30 22 19 6 -4 -7 0 -9 12 -6 11 3 30 9 44 13 14 3 28
12 32 18 5 7 8 5 8 -5 0 -14 -19 -26 -55 -33 -5 -1 -23 -6 -38 -10 -18 -5 -38
-4 -53 3 -20 9 -24 18 -24 56 0 28 4 44 10 40 6 -3 10 -21 10 -38z m1680 -49
c0 -5 -4 -8 -10 -8 -5 0 -9 3 -8 8 3 12 -24 62 -34 62 -4 0 -8 8 -8 18 0 10
12 -1 30 -28 16 -25 30 -48 30 -52z m-3054 70 c5 -7 3 -8 -6 -3 -10 6 -12 4
-7 -8 7 -17 -17 -42 -32 -33 -11 7 -61 -14 -61 -26 0 -4 -9 -8 -20 -8 -11 0
-20 5 -20 10 0 6 7 10 15 10 21 0 88 35 104 54 16 19 18 19 27 4z m-4027 -24
c5 3 11 -3 14 -14 5 -18 3 -18 -26 -7 -17 7 -33 19 -35 26 -3 10 0 11 17 2 12
-7 25 -10 30 -7z m3716 -37 c29 -11 34 -16 18 -16 -12 -1 -25 4 -28 9 -3 6
-14 10 -24 10 -10 0 -28 12 -42 27 l-24 27 30 -21 c17 -11 48 -27 70 -36z
m862 1 c-8 -5 -5 -8 8 -8 19 -1 19 -1 2 -11 -21 -12 -87 -3 -87 11 0 6 10 6
26 0 30 -12 40 -13 31 -3 -4 3 -2 12 4 20 9 10 8 13 0 13 -7 0 -9 5 -6 11 5 6
12 4 20 -8 10 -13 10 -20 2 -25z m3190 12 c3 0 -1 8 -8 18 -11 14 -10 13 9 -2
12 -11 22 -25 22 -33 0 -7 3 -12 8 -11 4 2 31 -16 60 -40 51 -40 61 -61 11
-24 -13 10 -36 17 -51 17 -20 -1 -24 2 -17 11 6 8 6 14 0 18 -5 3 -11 3 -14
-1 -2 -5 -2 -3 -1 4 4 16 -13 26 -21 13 -14 -23 -33 -9 -32 24 1 28 3 31 15
20 7 -8 16 -14 19 -14z m-4141 8 c4 -6 3 -8 -4 -4 -7 4 -12 -9 -15 -36 l-4
-43 -1 48 c-2 45 9 60 24 35z m667 -28 c3 -11 21 -29 41 -41 41 -24 42 -25 19
-33 -10 -4 -14 -4 -10 0 9 9 -54 56 -68 51 -5 -3 -11 8 -12 24 -2 32 22 31 30
-1z m4086 3 c-13 -16 -27 -29 -31 -31 -4 -2 -4 -11 -1 -20 4 -14 3 -14 -5 -3
-8 11 -15 9 -36 -13 -15 -14 -34 -26 -42 -26 -8 0 -13 -4 -10 -9 3 -5 -1 -14
-9 -21 -9 -8 -15 -8 -15 -2 0 6 6 13 13 16 6 3 -1 4 -18 1 -26 -4 -24 -2 12
15 47 21 47 21 113 80 53 46 63 51 29 13z m-7141 -33 c-13 -20 -45 -36 -54
-27 -4 3 48 41 64 46 1 1 -3 -8 -10 -19z m1394 -25 c-2 -13 -14 -27 -25 -31
-30 -10 -276 -21 -270 -11 2 4 -7 7 -21 7 -32 0 -56 10 -56 23 0 7 3 8 10 1
10 -10 324 -9 341 1 5 4 9 18 9 33 0 18 3 23 9 14 4 -7 6 -24 3 -37z m2562 3
c-3 -5 -14 -2 -25 8 -10 9 -16 21 -13 26 3 5 14 2 25 -8 10 -9 16 -21 13 -26z
m1922 -20 c23 -41 35 -53 57 -55 28 -2 37 11 15 20 -7 3 -4 6 7 6 14 1 21 -5
21 -17 0 -15 -9 -18 -52 -18 -39 0 -51 3 -47 13 3 7 1 13 -5 13 -6 0 -12 -6
-15 -12 -2 -7 -4 7 -3 31 0 27 -4 46 -12 49 -13 4 -17 22 -4 22 4 0 21 -24 38
-52z m-1879 -10 c-13 -8 -4 -11 28 -9 17 1 17 -1 -3 -9 -27 -11 -46 -4 -38 15
2 7 -1 18 -7 25 -8 9 -5 8 10 -1 16 -9 19 -16 10 -21z m-4895 15 c-6 -2 -10
-9 -7 -13 3 -5 -3 -9 -12 -9 -10 0 -52 -7 -93 -15 -41 -9 -88 -15 -105 -14
l-30 1 30 4 c63 8 177 33 193 43 9 5 22 9 27 9 6 0 4 -3 -3 -6z m588 -18 c25
-4 71 -8 103 -7 31 0 57 -3 57 -8 0 -5 -26 -7 -57 -4 -44 3 -53 2 -38 -6 18
-9 17 -10 -5 -5 -14 2 -41 5 -60 6 -29 0 -31 2 -15 9 16 7 13 9 -17 9 -28 1
-38 5 -38 17 0 12 3 14 13 6 6 -5 32 -13 57 -17z m699 6 c26 -17 -26 -22 -179
-19 l-145 4 160 4 160 4 -145 6 -145 6 140 2 c77 1 147 -2 154 -7z m431 -1
l-125 -6 105 -4 105 -4 -100 -3 c-74 -3 -104 -8 -117 -20 -10 -9 -18 -11 -18
-5 0 6 8 16 18 21 14 9 11 11 -18 12 l-35 2 35 7 c19 4 89 7 155 7 l120 -1
-125 -6z m929 1 c12 -8 10 -11 -10 -15 -37 -8 -287 -13 -259 -5 14 4 79 8 145
10 l120 3 -130 6 -130 6 125 2 c69 1 132 -2 139 -7z m1461 -21 c13 0 13 -1 0
-10 -10 -6 -11 -10 -2 -10 6 0 12 -5 12 -11 0 -8 -4 -8 -15 1 -8 6 -20 8 -27
4 -10 -6 -9 -3 1 9 12 15 11 17 -3 17 -9 0 -16 -5 -16 -11 0 -5 -5 -7 -11 -3
-8 4 -7 9 2 15 10 6 11 9 2 9 -7 0 -13 4 -13 9 0 6 12 3 28 -5 15 -7 34 -14
42 -14z m352 23 c-12 -2 -26 -13 -32 -23 -5 -9 -17 -20 -27 -24 -15 -5 -15 -4
1 9 11 8 16 15 10 15 -5 0 0 7 10 15 11 8 29 14 40 14 19 -2 19 -2 -2 -6z
m4218 0 c-1 -34 -20 -38 -194 -43 -96 -3 -172 -2 -169 3 2 4 76 7 164 7 144 0
161 2 177 19 20 22 22 24 22 14z m-3474 -39 c-40 -20 -54 -23 -70 -14 -13 7
-15 9 -4 6 10 -3 37 4 60 14 62 28 72 24 14 -6z m2431 5 c6 -6 26 -15 45 -19
30 -7 29 -8 -17 -8 -58 0 -66 3 -58 23 6 18 15 19 30 4z m-4402 -27 c-10 -11
-295 -10 -295 0 0 5 68 8 151 7 83 0 148 -4 144 -7z"/>
<path d="M7140 3760 c0 -5 14 -10 31 -10 17 0 28 4 24 10 -3 6 -17 10 -31 10
-13 0 -24 -4 -24 -10z"/>
<path d="M3854 3706 c-5 -14 -9 -15 -15 -5 -13 21 -22 3 -10 -19 6 -12 11 -30
11 -41 0 -40 17 -21 24 26 6 48 1 68 -10 39z"/>
<path d="M3897 3714 c-12 -13 -7 -44 8 -50 8 -4 15 -10 15 -15 0 -4 -7 -6 -16
-2 -12 4 -15 2 -12 -8 3 -8 13 -14 24 -14 24 0 32 42 10 51 -9 3 -16 10 -16
16 0 5 5 6 11 2 7 -4 10 -1 7 6 -5 16 -22 23 -31 14z"/>
<path d="M3678 3703 c-2 -4 -1 -26 3 -48 5 -35 6 -36 8 -10 l1 30 20 -25 20
-25 -1 45 c-1 35 -3 39 -8 20 l-7 -24 -16 23 c-9 12 -18 19 -20 14z"/>
<path d="M3754 3698 c-4 -6 2 -19 14 -29 28 -22 28 -32 0 -24 -22 7 -22 6 -6
-10 9 -10 21 -14 27 -11 16 10 13 43 -4 50 -8 3 -15 10 -15 16 0 6 5 8 10 5 6
-3 10 -1 10 4 0 15 -27 14 -36 -1z"/>
<path d="M4041 3540 c-16 -9 -6 -30 15 -30 15 0 20 25 6 34 -4 2 -14 1 -21 -4z"/>
<path d="M4327 3543 c-14 -13 -6 -33 12 -33 14 0 18 5 14 20 -5 21 -15 25 -26
13z"/>
<path d="M4380 3525 c0 -8 9 -15 20 -15 11 0 20 7 20 15 0 8 -9 15 -20 15 -11
0 -20 -7 -20 -15z"/>
<path d="M4403 2505 l-53 -55 0 -208 0 -209 29 -37 c57 -71 108 -98 135 -71
14 14 16 54 16 306 0 181 -4 298 -10 310 -20 36 -59 24 -117 -36z m93 16 c-4
-6 -14 -7 -23 -4 -11 4 -14 3 -9 -6 4 -6 4 -11 -1 -10 -21 4 -33 -2 -33 -16 0
-8 -8 -19 -19 -24 -17 -10 -19 -25 -19 -218 l-1 -207 32 -32 c17 -18 35 -30
41 -27 5 3 6 1 3 -4 -4 -6 0 -14 9 -17 11 -4 15 -2 11 8 -3 8 0 17 8 20 11 4
12 0 6 -16 -13 -35 -25 -32 -74 15 l-45 45 -1 209 0 209 27 31 c37 44 110 80
88 44z m12 -273 c-2 -255 -6 -225 -10 85 -2 92 0 167 5 167 4 0 6 -114 5 -252z"/>
<path d="M6154 2536 c-17 -13 -19 -30 -22 -185 l-4 -171 86 0 86 0 0 169 c0
164 -1 170 -22 185 -28 20 -98 21 -124 2z m81 -16 c4 -6 11 -7 17 -4 20 13 24
-18 21 -154 -1 -75 -3 -140 -3 -144 0 -5 -12 -8 -26 -8 -23 0 -25 2 -14 15 10
13 15 13 21 3 4 -7 9 49 11 124 3 123 1 136 -14 133 -11 -3 -15 1 -11 11 4 10
0 12 -13 7 -11 -4 -15 -3 -11 4 4 6 1 14 -5 16 -8 4 -7 6 4 6 9 1 20 -4 23 -9z
m-49 -15 c-3 -8 0 -15 7 -15 8 0 8 -3 -2 -9 -19 -12 -30 -251 -12 -251 7 0 9
-4 6 -10 -19 -30 -25 3 -25 133 0 98 4 147 12 155 16 16 21 15 14 -3z"/>
<path d="M8804 2536 c-17 -13 -19 -30 -22 -185 l-4 -171 86 0 86 0 0 169 c0
164 -1 170 -22 185 -28 20 -98 21 -124 2z m96 -19 c18 -9 25 -21 26 -49 2 -21
-1 -40 -6 -43 -14 -9 -21 12 -12 37 13 33 4 48 -25 48 -33 0 -52 -25 -53 -70
-1 -24 -4 -30 -8 -17 -13 31 -2 95 16 100 29 8 36 7 62 -6z m-73 -254 c-2 -27
-3 -5 -3 47 0 52 1 74 3 48 2 -27 2 -69 0 -95z m90 0 c-2 -27 -3 -5 -3 47 0
52 1 74 3 48 2 -27 2 -69 0 -95z"/>
<path d="M5859 2466 c-1 -1 -3 -14 -5 -31 -2 -22 -1 -26 7 -15 26 39 28 47 13
47 -7 0 -15 -1 -15 -1z"/>
<path d="M3178 1733 c34 -2 90 -2 125 0 34 2 6 3 -63 3 -69 0 -97 -1 -62 -3z"/>
</g>
</svg>
