<?xml version="1.0" standalone="no"?>
<!DOCTYPE svg PUBLIC "-//W3C//DTD SVG 20010904//EN"
 "http://www.w3.org/TR/2001/REC-SVG-20010904/DTD/svg10.dtd">
<svg version="1.0" xmlns="http://www.w3.org/2000/svg"
 width="538.400000pt" height="300.000000pt" viewBox="0 0 538.400000 300.000000"
 preserveAspectRatio="xMidYMid meet">
<metadata>
Created by potrace 1.13, written by Peter Selinger 2001-2015
</metadata>
<g transform="translate(0.000000,300.000000) scale(0.080000,-0.080000)"
fill="#000000" stroke="none">
<path d="M3208 2175 l3 -255 434 0 435 0 0 24 c0 14 3 27 8 30 13 8 14 288 2
374 l-12 82 -437 0 -436 0 3 -255z"/>
<path d="M1678 2395 c-5 -5 -8 -233 -8 -507 0 -423 2 -498 14 -498 8 0 17 6
19 13 4 9 6 9 6 -1 1 -7 -5 -15 -13 -18 -9 -3 -14 -26 -15 -70 l-2 -64 123 0
123 1 60 74 c33 41 63 75 68 75 4 0 7 6 7 14 0 8 3 16 8 18 4 2 27 28 52 58
25 30 49 60 55 66 13 13 68 80 140 169 32 39 79 95 105 125 26 30 64 77 85
104 21 27 48 60 61 73 27 27 32 48 10 40 -11 -4 -13 -1 -9 10 4 10 2 14 -4 10
-6 -4 -13 -1 -16 6 -9 23 -93 77 -104 66 -8 -8 -13 -7 -18 2 -6 8 -4 10 5 4 8
-5 11 -3 8 6 -3 8 -11 13 -17 11 -6 -1 -11 3 -11 9 0 8 -5 7 -15 -1 -13 -11
-14 -10 -9 5 5 13 4 16 -4 11 -7 -4 -12 -1 -12 9 0 11 -29 29 -82 54 -70 32
-109 49 -121 51 -1 0 -31 9 -67 21 -126 39 -403 74 -422 54z"/>
<path d="M5287 2333 c-9 -8 -9 -190 0 -366 l6 -137 418 0 c272 0 437 4 471 11
102 22 209 87 301 183 77 80 82 90 62 120 -10 14 -22 23 -28 19 -6 -3 -7 -1
-3 5 3 6 -5 19 -20 29 -14 10 -33 26 -42 36 -9 9 -22 17 -29 17 -7 0 -13 6
-13 14 0 17 -85 52 -159 66 -59 11 -953 14 -964 3z"/>
<path d="M0 1988 c0 -123 9 -156 74 -287 75 -148 227 -294 382 -368 156 -74
248 -90 469 -81 l80 3 0 415 0 415 -88 0 c-48 0 -87 3 -87 8 0 4 -187 7 -415
7 l-415 0 0 -112z"/>
<path d="M3683 1762 c-178 -1 -323 -5 -323 -9 0 -9 77 -129 103 -161 66 -80
181 -178 255 -216 l33 -17 60 58 c75 72 144 164 198 264 41 75 41 77 19 80
-13 2 -168 3 -345 1z"/>
<path d="M100 806 c0 -91 4 -146 10 -146 6 0 10 53 10 139 0 83 -4 142 -10
146 -6 4 -10 -45 -10 -139z"/>
<path d="M1336 943 c-3 -3 -6 -69 -6 -145 0 -116 2 -138 15 -138 12 0 15 16
15 85 0 82 1 85 25 91 66 16 85 -11 85 -122 0 -33 4 -54 11 -54 7 0 10 28 8
86 -5 103 -18 119 -86 110 l-43 -6 0 45 c0 42 -10 62 -24 48z"/>
<path d="M1850 810 c0 -87 4 -140 10 -140 6 0 10 20 10 45 0 40 2 45 23 45 15
0 28 -11 41 -35 20 -37 43 -61 51 -53 3 2 -9 26 -26 53 l-31 48 31 44 c20 28
26 43 17 43 -7 0 -25 -18 -40 -40 -16 -24 -34 -40 -46 -40 -18 0 -20 7 -20 85
0 50 -4 85 -10 85 -6 0 -10 -53 -10 -140z"/>
<path d="M2130 810 l0 -140 59 0 c51 0 62 3 75 22 17 23 22 123 8 145 -13 21
-59 33 -91 23 l-31 -9 0 50 c0 27 -4 49 -10 49 -6 0 -10 -53 -10 -140z m121 3
c11 -30 4 -90 -13 -110 -6 -7 -28 -13 -49 -13 l-39 0 0 68 c0 38 3 72 7 75 3
4 24 7 45 7 33 0 40 -4 49 -27z"/>
<path d="M3310 810 c0 -87 4 -140 10 -140 6 0 10 53 10 140 0 87 -4 140 -10
140 -6 0 -10 -53 -10 -140z"/>
<path d="M5120 810 c0 -87 4 -140 10 -140 6 0 10 33 10 79 0 46 5 83 11 86 20
13 80 9 90 -5 5 -8 9 -47 9 -87 0 -39 5 -75 10 -78 6 -4 10 26 10 83 0 107 -7
117 -80 110 l-50 -5 0 48 c0 27 -4 49 -10 49 -6 0 -10 -53 -10 -140z"/>
<path d="M5550 810 l0 -140 53 0 c28 0 57 4 63 8 49 33 43 171 -8 188 -11 3
-35 3 -54 -1 l-34 -6 0 46 c0 25 -4 45 -10 45 -6 0 -10 -53 -10 -140z m101 30
c15 -9 19 -22 19 -70 0 -66 -12 -80 -69 -80 l-31 0 0 70 c0 64 2 72 23 80 30
12 35 12 58 0z"/>
<path d="M6170 897 c0 -25 -5 -37 -17 -40 -17 -4 -17 -5 0 -6 14 -1 17 -11 17
-65 0 -93 11 -116 55 -116 19 0 35 5 35 10 0 6 -13 10 -29 10 -27 0 -30 4 -36
43 -4 23 -5 58 -3 77 3 31 7 36 38 41 27 4 31 7 18 13 -10 5 -25 6 -33 2 -15
-5 -17 -1 -19 38 -2 37 -26 30 -26 -7z"/>
<path d="M810 890 c0 -20 -5 -30 -15 -30 -8 0 -15 -4 -15 -10 0 -5 7 -10 15
-10 12 0 15 -15 15 -78 0 -88 8 -102 57 -102 43 0 43 18 1 22 l-33 3 -3 78 -3
77 36 0 c19 0 35 5 35 10 0 6 -16 10 -35 10 -32 0 -35 2 -35 30 0 17 -4 30
-10 30 -5 0 -10 -13 -10 -30z"/>
<path d="M3810 895 c0 -14 -7 -28 -15 -31 -8 -4 -15 -10 -15 -15 0 -5 7 -9 15
-9 12 0 15 -15 15 -78 0 -86 8 -102 52 -102 36 0 37 18 1 22 -28 3 -28 4 -31
81 l-3 77 31 0 c16 0 30 5 30 10 0 6 -13 10 -30 10 -27 0 -30 3 -30 30 0 17
-4 30 -10 30 -5 0 -10 -11 -10 -25z"/>
<path d="M2360 860 c-28 -9 -23 -11 34 -13 69 -3 79 -67 11 -67 -54 0 -75 -15
-75 -54 0 -19 6 -39 13 -45 15 -12 147 -11 147 1 0 4 -4 8 -10 8 -6 0 -10 31
-10 74 0 66 -3 77 -22 90 -24 17 -48 19 -88 6z m90 -129 c0 -31 -14 -41 -60
-41 -20 0 -31 6 -35 20 -10 31 12 50 56 50 36 0 39 -2 39 -29z"/>
<path d="M2592 860 c-12 -5 -29 -7 -37 -4 -13 5 -15 -9 -15 -90 0 -57 4 -96
10 -96 6 0 10 33 10 80 0 77 1 81 26 90 64 25 84 2 84 -96 0 -43 4 -74 10 -74
6 0 10 33 10 80 0 67 -3 83 -20 100 -21 21 -42 24 -78 10z"/>
<path d="M2773 863 c-40 -8 -24 -21 20 -16 49 5 64 -3 68 -37 4 -23 0 -25 -42
-30 -72 -9 -96 -40 -69 -91 9 -17 20 -19 85 -17 49 2 71 6 66 13 -5 5 -11 43
-13 84 -5 96 -24 111 -115 94z m85 -135 c-3 -31 -5 -33 -43 -33 -30 0 -41 4
-43 18 -7 35 6 47 48 47 40 0 41 -1 38 -32z"/>
<path d="M3423 863 c-41 -8 -24 -21 20 -16 33 4 48 1 61 -12 29 -29 16 -49
-37 -57 -27 -3 -55 -12 -63 -18 -20 -18 -17 -64 6 -85 17 -16 27 -17 64 -8 28
6 50 6 61 0 9 -5 20 -6 23 -2 4 4 1 10 -5 12 -9 3 -13 29 -13 79 0 103 -24
125 -117 107z m87 -137 c0 -29 -4 -34 -30 -39 -43 -9 -60 1 -60 33 0 31 10 38
58 39 30 1 32 -1 32 -33z"/>
<path d="M3630 857 c-17 -8 -26 -22 -28 -44 -4 -36 10 -47 70 -58 41 -8 58
-36 37 -62 -10 -11 -26 -14 -61 -11 -53 6 -65 -7 -18 -17 37 -8 85 2 100 20
15 18 9 66 -10 76 -8 5 -34 13 -57 19 -32 8 -43 16 -43 30 0 27 35 43 76 35
21 -3 34 -2 34 5 0 5 -8 10 -17 10 -10 0 -27 3 -38 5 -11 3 -31 -1 -45 -8z"/>
<path d="M4062 860 c-12 -5 -27 -21 -32 -35 -15 -39 -12 -108 5 -132 18 -26
75 -39 102 -24 15 9 12 10 -18 11 -56 0 -72 18 -73 83 -1 67 11 82 64 82 22 0
40 3 40 7 0 5 -6 8 -12 8 -7 0 -22 2 -33 5 -11 2 -30 0 -43 -5z"/>
<path d="M4230 857 c-17 -8 -26 -22 -28 -44 -4 -36 10 -47 70 -58 25 -5 39
-14 44 -28 10 -31 -22 -50 -73 -44 -52 6 -57 -9 -6 -19 67 -13 112 19 99 70
-7 29 -8 29 -73 46 -32 8 -43 16 -43 30 0 27 35 43 76 35 21 -3 34 -2 34 5 0
5 -8 10 -17 10 -10 0 -27 3 -38 5 -11 3 -31 -1 -45 -8z"/>
<path d="M4623 863 c-42 -8 -24 -19 30 -18 52 0 52 0 55 -32 3 -32 2 -33 -35
-33 -21 0 -49 -7 -61 -16 -28 -19 -29 -65 -2 -89 17 -16 27 -17 64 -8 28 6 50
6 61 0 18 -10 36 0 18 11 -6 4 -12 42 -15 85 -5 102 -23 118 -115 100z m87
-138 c0 -21 -5 -35 -12 -35 -7 0 -22 -3 -34 -6 -20 -5 -54 17 -54 36 0 20 34
40 66 40 32 0 34 -2 34 -35z"/>
<path d="M4978 859 c-15 -6 -30 -20 -34 -32 -11 -33 -8 -111 5 -135 12 -23 66
-38 100 -27 32 10 25 25 -9 19 -19 -4 -38 -1 -55 10 -22 14 -25 24 -25 71 0
47 3 57 25 71 14 9 36 14 50 12 14 -3 28 -1 31 3 3 5 -1 9 -8 9 -7 0 -22 2
-33 5 -11 2 -32 -1 -47 -6z"/>
<path d="M5794 861 c-46 -20 -59 -148 -18 -178 21 -15 124 -18 124 -3 0 6 -25
10 -55 10 -50 0 -56 2 -65 26 -16 42 -13 44 61 44 l71 0 -7 38 c-3 20 -12 43
-18 49 -17 17 -67 24 -93 14z m78 -34 c4 -7 8 -20 8 -29 0 -15 -9 -18 -54 -18
-51 0 -54 1 -49 23 3 12 13 28 22 35 18 14 61 8 73 -11z"/>
<path d="M5978 863 c-35 -9 -17 -18 34 -18 52 0 53 0 53 -30 0 -28 -3 -30 -48
-36 -52 -5 -67 -19 -67 -60 0 -39 18 -48 98 -47 66 2 71 3 57 18 -10 11 -15
39 -15 88 0 60 -3 73 -19 82 -20 10 -61 12 -93 3z m92 -127 c0 -37 -12 -46
-60 -46 -52 0 -44 64 10 73 49 8 50 8 50 -27z"/>
<path d="M6323 860 c-12 -5 -24 -18 -28 -29 -7 -23 10 -61 28 -61 7 0 29 -5
50 -11 33 -9 38 -14 35 -37 -3 -25 -7 -27 -55 -30 -70 -4 -68 -22 2 -22 47 0
57 3 71 25 26 39 6 73 -46 81 -23 4 -48 13 -55 21 -31 31 15 61 75 49 35 -6
41 9 8 18 -31 8 -58 7 -85 -4z"/>
<path d="M200 833 c-18 -24 -21 -38 -18 -87 5 -68 21 -86 80 -86 58 0 78 26
78 100 0 74 -20 100 -79 100 -31 0 -44 -6 -61 -27z m106 -18 c19 -30 15 -112
-7 -126 -20 -13 -63 -11 -77 3 -7 7 -12 38 -12 70 0 44 4 59 18 67 30 18 61
12 78 -14z"/>
<path d="M421 844 c-25 -18 -29 -75 -7 -97 9 -9 11 -19 5 -28 -5 -8 -6 -22 -3
-32 3 -10 -2 -27 -11 -37 -11 -13 -14 -26 -10 -42 11 -32 22 -38 81 -38 58 0
84 19 84 62 0 34 -17 46 -70 50 -38 2 -46 7 -48 26 -3 18 1 22 25 22 16 0 39
7 52 16 20 14 22 23 18 55 -4 34 -2 39 14 39 10 0 19 3 19 8 0 14 -127 11
-149 -4z m89 -23 c17 -32 -4 -71 -38 -71 -15 0 -33 5 -40 12 -15 15 -15 51 0
66 19 19 66 15 78 -7z m19 -180 c18 -32 -8 -53 -59 -49 -46 3 -59 19 -46 54 9
22 93 19 105 -5z"/>
<path d="M617 842 c-20 -22 -22 -55 -4 -71 8 -6 31 -14 52 -19 42 -8 62 -30
52 -56 -5 -12 -20 -16 -62 -16 -30 0 -55 -4 -55 -10 0 -14 114 -12 128 2 7 7
12 27 12 45 0 36 -13 46 -73 57 -76 14 -56 66 25 66 30 0 47 4 43 10 -11 18
-100 12 -118 -8z"/>
<path d="M950 850 c-11 -7 0 -10 38 -10 45 0 54 -3 61 -22 12 -29 -10 -48 -55
-48 -18 0 -40 -7 -48 -16 -19 -19 -21 -67 -3 -82 15 -12 157 -12 157 0 0 5 -4
8 -10 8 -6 0 -10 29 -10 68 0 88 -16 112 -73 112 -23 0 -49 -5 -57 -10z m100
-125 c0 -28 -4 -36 -24 -41 -41 -10 -61 -1 -64 29 -4 29 19 45 66 46 19 1 22
-4 22 -34z"/>
<path d="M1150 840 c-36 -36 -18 -77 40 -86 93 -15 94 -67 1 -72 -68 -4 -66
-22 2 -22 58 0 87 19 87 57 0 27 -18 41 -71 56 -37 11 -44 17 -44 37 0 23 4
25 53 28 63 4 60 22 -4 22 -31 0 -50 -6 -64 -20z"/>
<path d="M2040 765 c0 -57 4 -95 10 -95 6 0 10 38 10 95 0 57 -4 95 -10 95 -6
0 -10 -38 -10 -95z"/>
<path d="M3120 840 c-16 -16 -20 -33 -20 -80 0 -76 20 -100 83 -100 23 0 49 5
57 10 11 7 0 10 -37 10 -55 0 -83 17 -83 51 0 17 7 19 65 19 l65 0 0 33 c0 51
-24 77 -71 77 -26 0 -46 -7 -59 -20z m101 -26 c5 -15 7 -29 4 -32 -6 -6 -97
-3 -104 4 -2 2 1 15 7 29 9 20 19 25 47 25 29 0 37 -5 46 -26z"/>
<path d="M3940 765 c0 -57 4 -95 10 -95 6 0 10 38 10 95 0 57 -4 95 -10 95 -6
0 -10 -38 -10 -95z"/>
<path d="M4416 844 c-22 -21 -29 -57 -23 -111 3 -29 12 -52 23 -60 21 -15 92
-17 114 -3 11 7 0 10 -37 10 -42 0 -55 4 -67 22 -29 41 -21 48 48 48 36 0 68
5 71 10 9 15 -4 68 -22 85 -19 20 -87 19 -107 -1z m94 -23 c18 -35 12 -41 -45
-41 -30 0 -55 2 -55 4 0 3 4 16 10 30 8 21 16 26 44 26 25 0 38 -6 46 -19z"/>
<path d="M4803 765 c0 -75 2 -95 13 -95 11 0 14 18 14 74 l0 74 35 12 c19 6
35 16 35 21 0 12 -17 11 -43 -2 -16 -9 -22 -9 -25 0 -2 6 -9 11 -16 11 -8 0
-12 -29 -13 -95z"/>
</g>
</svg>
