<?xml version="1.0" standalone="no"?>
<!DOCTYPE svg PUBLIC "-//W3C//DTD SVG 20010904//EN"
 "http://www.w3.org/TR/2001/REC-SVG-20010904/DTD/svg10.dtd">
<svg version="1.0" xmlns="http://www.w3.org/2000/svg"
 width="188.800000pt" height="103.200000pt" viewBox="0 0 188.800000 103.200000"
 preserveAspectRatio="xMidYMid meet">
<metadata>
Created by potrace 1.13, written by Peter Selinger 2001-2015
</metadata>
<g transform="translate(0.000000,103.200000) scale(0.080000,-0.080000)"
fill="#000000" stroke="none">
<path d="M0 1073 c0 -217 0 -218 19 -187 28 46 98 101 160 126 54 21 166 31
216 18 14 -4 23 3 33 24 10 19 33 37 76 56 34 16 68 36 75 44 8 9 28 16 46 16
46 0 80 -55 70 -116 -4 -32 -1 -55 16 -93 l21 -50 30 15 c27 14 29 19 24 47
-3 17 -12 34 -18 38 -13 8 -38 83 -38 115 0 17 9 24 47 33 25 7 72 30 104 52
64 45 93 46 103 3 l7 -26 21 27 c31 39 77 55 162 55 126 0 226 -51 226 -116 0
-12 10 -40 22 -60 16 -28 22 -52 21 -100 -1 -121 -67 -202 -184 -226 l-59 -12
0 -63 0 -63 -70 0 -70 0 0 30 c0 17 -5 30 -12 30 -6 0 -45 -12 -86 -26 -41
-14 -76 -24 -77 -22 -2 2 -13 39 -25 83 -12 44 -23 81 -25 83 -2 2 -17 1 -34
-3 -38 -8 -38 -17 -5 -111 15 -41 25 -76 23 -78 -2 -1 -43 -17 -92 -33 l-87
-31 -18 42 c-10 22 -33 80 -52 128 -19 49 -38 88 -41 88 -3 0 -6 -16 -7 -35
-1 -36 -26 -97 -59 -147 l-17 -28 44 -45 44 -45 -65 -65 -65 -66 -162 185
c-153 174 -176 207 -152 219 6 3 5 4 -2 3 -7 -1 -14 -19 -16 -39 -4 -44 -10
-45 -46 -12 l-26 24 0 -379 0 -380 694 0 695 0 3 37 c4 54 31 56 47 3 12 -40
12 -40 61 -40 38 0 50 4 50 15 0 9 9 15 25 15 16 0 25 -6 25 -15 0 -13 49 -15
380 -15 l380 0 0 493 c-1 416 -3 495 -15 511 -13 17 -13 22 0 42 11 17 15 53
15 134 l0 110 -1180 0 -1180 0 0 -217z m238 145 c19 -19 15 -48 -7 -48 -24 0
-45 25 -37 45 7 18 27 20 44 3z m1258 -429 c22 -24 10 -52 -25 -57 -41 -6 -67
38 -39 66 18 18 43 15 64 -9z m10 -124 c-3 -9 -14 -15 -23 -13 -22 4 -30 38
-11 49 18 11 43 -15 34 -36z m444 -101 c0 -8 6 -11 14 -8 16 6 46 -42 46 -75
0 -11 13 -30 30 -42 16 -12 26 -27 23 -33 -3 -6 -3 -8 2 -4 7 7 65 -17 65 -28
0 -2 -9 0 -19 6 -29 15 -51 13 -45 -5 4 -10 0 -15 -14 -15 -11 0 -22 -7 -26
-15 -4 -11 -14 -14 -36 -10 -28 5 -29 4 -25 -27 l5 -33 -12 28 c-15 35 -29 35
-19 -1 15 -52 42 -94 56 -88 8 3 28 -8 44 -24 16 -17 36 -30 45 -30 24 0 66
22 60 31 -3 5 0 9 6 9 16 0 80 -65 80 -80 0 -7 -9 -1 -21 14 -19 24 -48 28
-33 5 3 -6 -3 -5 -14 2 -18 11 -24 10 -42 -6 -15 -14 -21 -15 -18 -5 4 19 -38
25 -59 8 -9 -7 -14 -8 -10 -2 4 8 -11 12 -48 12 -30 0 -57 -4 -60 -8 -3 -5
-16 -5 -29 0 -13 5 -26 7 -28 4 -3 -2 -19 -6 -36 -8 -21 -2 -33 2 -37 11 -4
11 -1 13 12 9 10 -4 14 -4 10 0 -3 4 7 24 23 44 24 30 30 48 30 85 0 38 -3 46
-15 41 -8 -3 -15 0 -15 7 0 8 -4 6 -10 -3 -7 -11 -5 -18 5 -26 43 -32 -17 -99
-78 -87 -26 5 -29 4 -24 -11 6 -14 2 -17 -16 -14 -14 2 -23 11 -25 26 -4 28
-18 28 -33 1 -8 -16 -8 -28 0 -45 11 -24 0 -41 -19 -29 -5 3 -10 1 -10 -4 0
-6 -11 -11 -25 -11 -17 0 -23 4 -19 14 3 8 12 12 21 9 13 -5 13 -3 4 15 -12
22 0 39 20 26 7 -4 9 0 6 12 -3 11 -9 54 -13 96 -6 77 -6 77 25 108 17 18 29
36 26 41 -3 4 6 11 20 15 14 3 24 11 22 18 -2 6 4 27 14 47 l18 36 75 -3 c42
-2 75 0 74 4 -1 4 2 15 7 25 7 17 9 17 26 1 11 -9 19 -23 19 -30z m-612 -48
c5 -24 -10 -38 -31 -30 -17 6 -23 35 -10 48 12 12 38 1 41 -18z m-1279 -192
c-9 -11 -15 -12 -25 -3 -11 9 -12 15 -3 25 9 11 15 12 25 3 11 -9 12 -15 3
-25z m1229 17 c3 -9 -2 -11 -17 -6 -15 4 -21 2 -21 -9 0 -9 14 -19 33 -25 30
-9 31 -9 5 -10 -25 -1 -58 21 -58 38 0 28 49 38 58 12z m-325 -61 c-7 -27 -28
-42 -55 -38 -29 4 -33 51 -5 56 9 2 17 -1 17 -7 0 -6 -7 -11 -15 -11 -20 0
-19 -19 0 -26 23 -9 47 16 42 43 -3 18 -1 21 8 13 7 -6 11 -19 8 -30z m736
-105 c17 -10 51 4 51 21 0 8 5 12 10 9 16 -10 11 -24 -15 -41 -23 -15 -27 -15
-50 0 -15 10 -25 26 -24 39 l0 22 9 -21 c5 -12 13 -25 19 -29z m-168 -15 c5 0
9 5 9 10 0 13 27 13 35 0 11 -18 -3 -39 -22 -34 -10 3 -29 14 -43 25 -14 12
-19 18 -12 14 6 -3 13 0 13 7 1 7 3 5 6 -4 2 -10 9 -18 14 -18z m-484 -86 c7
-19 -20 -49 -36 -40 -12 8 -15 39 -4 49 12 12 33 7 40 -9z"/>
<path d="M1690 444 c0 -13 7 -15 38 -9 29 5 42 2 52 -9 7 -9 20 -16 30 -16 20
0 53 33 43 43 -3 4 -42 7 -85 7 -65 0 -78 -3 -78 -16z"/>
<path d="M1075 1163 c-5 -5 -16 -16 -24 -25 -13 -17 -11 -17 27 -4 22 8 43 11
47 8 4 -4 6 0 3 8 -5 17 -37 24 -53 13z"/>
<path d="M1310 1134 c0 -8 4 -12 10 -9 5 3 20 1 32 -6 23 -12 23 -12 4 10 -22
25 -46 28 -46 5z"/>
<path d="M877 1103 c-4 -3 -7 -15 -7 -26 0 -16 3 -17 15 -7 8 6 19 9 26 5 8
-6 8 -2 0 14 -12 22 -23 26 -34 14z"/>
<path d="M1004 1039 c10 -88 28 -122 21 -40 -3 35 -5 72 -5 82 0 11 -5 19 -11
19 -8 0 -10 -18 -5 -61z"/>
<path d="M560 1021 c0 -24 3 -28 20 -24 23 6 26 23 8 41 -19 19 -28 14 -28
-17z"/>
<path d="M1190 995 c0 -30 4 -45 13 -45 33 0 50 53 25 78 -25 25 -38 13 -38
-33z"/>
<path d="M481 978 c6 -14 17 -25 25 -25 12 0 12 3 1 21 -21 31 -40 34 -26 4z"/>
<path d="M370 935 c0 -8 7 -15 16 -15 8 0 12 -4 9 -10 -3 -5 -2 -10 3 -10 15
0 22 26 9 39 -16 16 -37 14 -37 -4z"/>
<path d="M158 919 c-14 -7 -18 -22 -17 -57 1 -26 4 -36 6 -23 7 35 43 62 77
58 l30 -4 -23 18 c-26 21 -47 23 -73 8z"/>
<path d="M242 818 c-15 -19 52 -98 69 -81 6 6 12 24 12 39 0 43 -56 72 -81 42z"/>
</g>
</svg>
