<?xml version="1.0" standalone="no"?>
<!DOCTYPE svg PUBLIC "-//W3C//DTD SVG 20010904//EN"
 "http://www.w3.org/TR/2001/REC-SVG-20010904/DTD/svg10.dtd">
<svg version="1.0" xmlns="http://www.w3.org/2000/svg"
 width="819.200000pt" height="819.200000pt" viewBox="0 0 819.200000 819.200000"
 preserveAspectRatio="xMidYMid meet">
<metadata>
Created by potrace 1.13, written by Peter Selinger 2001-2015
</metadata>
<g transform="translate(0.000000,819.200000) scale(0.080000,-0.080000)"
fill="#000000" stroke="none">
<path d="M3523 8306 c-277 -139 -491 -282 -731 -490 l-103 -89 33 -36 c18 -20
175 -180 349 -356 174 -176 354 -358 399 -405 79 -82 499 -510 737 -750 l113
-116 -30 -88 c-16 -49 -42 -136 -57 -195 -27 -101 -28 -117 -28 -336 0 -218 2
-236 28 -349 50 -207 116 -360 232 -536 191 -288 482 -509 814 -620 181 -61
274 -75 506 -75 151 0 221 5 285 18 91 19 243 63 274 79 16 9 -59 87 -598 627
-339 339 -616 623 -615 631 0 8 4 23 7 33 4 10 192 202 417 427 356 356 414
410 440 410 27 1 98 -67 642 -617 337 -339 614 -615 616 -613 11 12 60 175 80
265 19 86 22 131 22 315 0 188 -3 228 -23 318 -43 191 -116 375 -200 506 -15
23 -32 51 -39 64 -43 80 -235 282 -353 372 -287 217 -594 320 -960 320 -205 0
-362 -26 -528 -87 l-42 -16 -126 129 c-140 143 -817 834 -1133 1156 -112 114
-208 208 -212 208 -4 0 -101 -47 -216 -104z"/>
<path d="M7014 4163 c-20 -38 -50 -87 -66 -111 -16 -23 -26 -47 -22 -54 4 -7
3 -8 -4 -4 -7 4 -12 3 -12 -3 0 -6 -16 -36 -35 -66 -20 -31 -33 -61 -29 -68 4
-6 3 -8 -1 -4 -8 7 -18 -7 -57 -83 -7 -14 -17 -28 -22 -31 -5 -4 -5 -12 -1
-19 5 -9 4 -11 -3 -6 -11 7 -14 3 -15 -26 -1 -23 36 -87 46 -81 6 3 7 2 4 -3
-3 -6 12 -39 33 -74 21 -36 48 -84 60 -108 19 -37 24 -41 38 -30 13 11 14 10
5 -7 -9 -17 -6 -28 17 -61 15 -23 31 -51 35 -63 3 -12 11 -19 16 -16 5 3 6 -1
3 -9 -3 -9 -1 -16 5 -16 6 0 11 -6 11 -14 0 -7 9 -25 21 -40 l20 -26 309 0
309 0 7 22 c4 13 15 34 24 48 43 61 165 276 164 288 -1 7 1 11 4 7 6 -5 16 11
54 85 7 14 17 28 22 31 5 4 5 13 1 20 -5 8 -4 10 0 6 5 -4 14 3 21 15 11 20 8
31 -23 88 -20 36 -44 74 -55 86 -10 11 -16 23 -13 25 4 5 -109 205 -132 234
-4 6 -15 24 -23 40 -8 17 -24 45 -35 62 l-20 33 -312 0 -311 0 -38 -67z m451
-164 c22 -6 52 -20 67 -30 14 -11 32 -18 40 -16 7 2 9 2 5 -1 -4 -2 8 -21 28
-43 19 -21 35 -44 35 -50 0 -5 5 -7 10 -4 6 4 10 3 9 -2 -2 -4 6 -35 16 -67
51 -171 -37 -351 -199 -404 -79 -26 -129 -28 -202 -6 -110 32 -195 118 -225
229 -36 134 41 319 152 365 16 7 26 17 22 23 -3 5 -1 7 5 4 5 -4 21 -3 34 2
32 13 155 13 203 0z"/>
<path d="M9160 3249 c0 -8 -14 -41 -30 -74 -20 -40 -23 -51 -10 -35 24 31 55
108 46 117 -3 3 -6 0 -6 -8z"/>
<path d="M9050 3022 c-18 -37 -33 -73 -31 -81 1 -7 -2 -11 -6 -8 -5 3 -17 -7
-27 -24 -9 -16 -14 -29 -10 -29 4 0 -2 -10 -13 -22 -27 -29 -86 -139 -79 -146
4 -3 6 0 6 7 0 7 7 11 14 8 10 -4 13 -1 10 8 -6 15 41 103 64 120 7 6 12 15
11 20 -4 16 12 45 22 39 5 -3 10 1 11 8 0 7 2 18 2 24 1 6 9 22 18 36 19 29
50 100 45 104 -2 2 -18 -27 -37 -64z"/>
<path d="M8840 2667 c-36 -64 -268 -370 -365 -480 -49 -56 -83 -102 -79 -109
4 -6 3 -8 -3 -5 -12 8 -160 -140 -155 -155 1 -5 -2 -7 -7 -4 -12 8 -73 -53
-66 -64 3 -5 0 -12 -6 -16 -8 -4 -9 -3 -5 4 13 22 -9 12 -42 -19 -18 -16 -30
-34 -26 -41 4 -6 3 -8 -3 -5 -6 4 -46 -23 -89 -60 -94 -78 -359 -276 -429
-320 -225 -142 -289 -180 -363 -213 -28 -13 -41 -24 -36 -31 4 -7 3 -9 -4 -6
-15 10 -43 -3 -35 -16 3 -6 1 -7 -5 -3 -6 3 -68 -20 -139 -52 -70 -32 -143
-65 -160 -72 -18 -7 -30 -17 -26 -23 3 -6 1 -7 -6 -3 -6 4 -64 -12 -129 -37
-64 -24 -138 -49 -164 -57 -28 -7 -45 -17 -41 -23 3 -6 1 -7 -5 -3 -7 4 -69
-9 -139 -28 -427 -117 -751 -159 -1203 -159 -325 1 -533 19 -797 70 -76 15
-155 27 -175 27 -21 0 -33 3 -27 7 6 3 -6 10 -28 13 -53 10 -260 69 -373 106
-52 18 -99 33 -105 34 -5 2 -18 6 -27 10 -9 4 -22 4 -29 0 -7 -4 -9 -3 -6 3 4
6 -19 20 -56 34 -34 12 -84 33 -112 45 -170 76 -163 74 -177 56 -7 -9 -8 -13
-2 -10 5 4 29 -4 53 -18 24 -13 53 -24 65 -24 17 0 18 -2 6 -10 -11 -7 -6 -8
18 -4 29 6 32 4 25 -12 -6 -17 -5 -17 10 -5 10 8 21 11 24 7 4 -4 1 -12 -7
-17 -12 -8 -11 -9 5 -5 13 4 46 -7 89 -29 65 -35 89 -44 206 -79 30 -10 69
-24 87 -32 17 -8 51 -19 75 -24 128 -27 199 -46 193 -52 -6 -5 30 -14 100 -24
11 -2 67 -13 125 -25 58 -11 120 -22 138 -22 17 -1 32 -5 32 -10 0 -5 15 -7
33 -3 23 4 28 3 17 -4 -16 -11 1 -13 118 -13 34 0 62 -4 62 -9 0 -5 15 -8 33
-7 17 0 88 -4 157 -10 139 -13 467 -13 575 0 86 10 256 23 310 23 l39 0 -29
13 -30 13 30 -5 c17 -3 97 6 179 20 83 14 155 25 160 25 6 0 4 5 -4 11 -11 7
-6 8 19 4 23 -5 31 -4 27 4 -5 7 7 11 37 11 24 0 47 3 51 8 4 4 11 7 14 7 27
2 89 18 98 26 7 5 28 10 48 11 20 1 36 5 36 10 0 5 10 6 23 3 15 -4 18 -3 9 3
-11 7 -9 10 7 15 12 3 19 1 16 -3 -3 -5 21 2 52 14 32 13 73 27 91 31 17 3 32
11 32 17 0 6 11 8 25 6 13 -3 22 -2 20 2 -3 4 24 18 60 31 36 12 65 27 65 32
0 4 8 6 19 2 12 -3 21 0 25 10 3 9 11 15 18 14 20 -2 58 12 58 22 0 5 8 9 18
9 10 0 35 9 57 20 22 11 45 20 52 20 17 0 17 17 1 24 -7 3 -3 3 8 1 28 -7 225
93 232 117 2 9 11 19 19 23 13 4 14 3 3 -10 -9 -11 -9 -15 -1 -15 14 0 41 24
41 37 0 4 9 14 20 21 20 12 27 5 13 -14 -5 -5 2 1 15 14 12 13 22 21 22 17 0
-7 77 32 82 42 4 9 84 63 94 63 8 0 138 99 184 140 32 28 33 30 10 24 -14 -3
-21 -3 -17 2 4 4 18 9 30 9 25 1 87 36 87 49 0 4 -8 5 -17 1 -14 -5 -15 -4 -6
6 10 10 15 9 28 -1 8 -7 15 -8 15 -2 0 5 27 32 60 58 41 34 55 51 47 57 -7 5
-3 6 11 2 15 -4 22 -2 22 8 0 8 18 26 40 41 23 15 38 30 36 35 -3 4 6 14 19
21 13 7 21 18 18 23 -4 6 0 8 10 4 12 -4 14 -2 10 10 -5 12 -2 15 9 11 10 -4
21 5 33 28 12 22 24 33 33 29 8 -3 12 0 9 7 -4 13 40 58 56 58 5 0 5 5 1 12
-5 8 -2 9 10 5 13 -5 17 -3 13 5 -2 7 2 19 9 26 8 7 14 10 14 5 0 -4 6 2 14
12 8 11 12 24 9 28 -3 5 4 6 16 2 12 -4 21 -2 21 4 0 6 -5 11 -11 11 -5 0 -8
4 -4 10 3 5 13 7 23 4 14 -5 15 -4 2 5 -13 10 -8 15 12 12 4 0 4 7 1 16 -5 12
-3 14 8 8 8 -4 11 -5 7 0 -4 4 9 24 30 43 20 20 35 43 34 51 -2 9 -1 13 3 9 9
-9 45 29 45 48 0 10 6 14 15 11 8 -4 17 -1 21 5 4 7 3 8 -4 4 -7 -4 -12 -3
-12 3 0 5 6 14 14 18 8 4 22 22 30 38 9 17 16 24 16 17 0 -10 5 -8 17 4 10 10
16 29 15 43 -2 16 0 21 5 14 6 -8 12 -3 21 16 7 16 23 40 36 54 13 14 21 28
18 31 -3 3 0 6 6 6 7 0 12 7 12 15 0 8 4 15 9 15 5 0 12 11 15 25 4 14 11 23
16 20 9 -6 12 2 9 21 0 4 5 10 11 14 7 4 8 10 3 13 -6 4 -20 -13 -33 -36z"/>
<path d="M2051 1874 c0 -5 21 -26 45 -48 24 -21 44 -35 43 -30 0 5 -21 26 -45
48 -24 21 -44 35 -43 30z"/>
<path d="M2348 1610 c22 -22 44 -40 49 -40 6 0 23 -9 39 -21 l29 -21 -28 24
c-122 103 -158 127 -89 58z"/>
<path d="M2470 1523 c0 -4 14 -17 30 -28 16 -11 30 -25 30 -32 0 -7 6 -10 14
-7 8 3 28 -7 44 -23 45 -41 55 -48 72 -48 8 0 14 -6 13 -12 -3 -15 13 -17 21
-4 3 5 -11 17 -32 26 -20 10 -48 27 -62 39 -44 39 -130 98 -130 89z"/>
<path d="M2725 1339 c17 -11 50 -31 75 -45 80 -44 115 -66 118 -75 2 -5 15 -9
29 -9 18 0 24 -4 20 -14 -4 -10 -1 -13 10 -9 8 3 18 2 22 -3 17 -25 110 -75
150 -80 31 -4 39 -13 21 -24 -8 -6 -10 -10 -5 -10 14 0 40 18 35 23 -12 11
-86 40 -99 38 -7 -1 -10 2 -7 8 5 8 -18 22 -44 26 -3 0 -24 13 -47 28 -24 15
-45 27 -47 27 -3 0 -57 32 -121 70 -64 39 -121 70 -128 70 -7 0 2 -9 18 -21z"/>
</g>
</svg>
