<?xml version="1.0" standalone="no"?>
<!DOCTYPE svg PUBLIC "-//W3C//DTD SVG 20010904//EN"
 "http://www.w3.org/TR/2001/REC-SVG-20010904/DTD/svg10.dtd">
<svg version="1.0" xmlns="http://www.w3.org/2000/svg"
 width="180.000000pt" height="180.000000pt" viewBox="0 0 180.000000 180.000000"
 preserveAspectRatio="xMidYMid meet">
<metadata>
Created by potrace 1.13, written by Peter Selinger 2001-2015
</metadata>
<g transform="translate(0.000000,180.000000) scale(0.080000,-0.080000)"
fill="#000000" stroke="none">
<path d="M130 2234 c-46 -20 -77 -50 -103 -99 l-22 -40 0 -965 0 -965 22 -40
c27 -50 58 -80 105 -100 33 -13 153 -15 993 -15 840 0 960 2 993 15 47 20 78
50 105 100 l22 40 0 965 0 965 -22 40 c-27 50 -58 80 -105 100 -33 13 -153 15
-995 15 -833 -1 -963 -3 -993 -16z m377 -1281 c2 -6 -46 -73 -108 -150 l-111
-138 111 -3 c103 -2 111 -4 111 -22 0 -19 -7 -20 -145 -20 -136 0 -145 1 -145
19 0 11 49 79 109 153 l109 133 -109 3 c-101 2 -109 4 -109 23 0 19 6 19 142
17 96 -2 143 -7 145 -15z m230 -15 c6 -18 35 -97 66 -175 l55 -143 -27 0 c-22
0 -29 7 -41 43 l-15 42 -79 0 -79 0 -16 -42 c-13 -36 -19 -43 -42 -43 l-27 0
55 143 c31 78 60 157 66 175 9 27 15 32 42 32 27 0 33 -5 42 -32z m362 17 c16
-8 31 -22 35 -30 12 -34 6 -82 -14 -100 -19 -17 -19 -18 5 -37 53 -41 37 -135
-26 -157 -18 -6 -67 -11 -109 -11 l-77 0 -6 107 c-4 58 -7 137 -7 175 l0 68
85 0 c56 0 96 -5 114 -15z m347 -18 c32 -38 31 -81 -2 -112 -15 -14 -22 -25
-15 -25 26 0 51 -40 51 -83 0 -34 -6 -49 -26 -68 -23 -21 -36 -24 -125 -27
l-99 -4 0 177 0 177 96 -4 c91 -3 97 -5 120 -31z m164 -142 l0 -175 -25 0 -25
0 0 175 0 175 25 0 25 0 0 -175z m181 114 l41 -61 40 61 c31 46 46 61 64 61
13 0 24 -2 24 -5 0 -3 -22 -39 -50 -80 -27 -41 -50 -77 -50 -80 0 -3 27 -46
60 -95 l61 -90 -29 0 c-25 0 -35 10 -73 70 -24 39 -46 70 -49 70 -3 0 -25 -32
-50 -70 -38 -59 -49 -70 -73 -70 l-28 0 61 90 c33 49 60 92 60 95 0 3 -22 39
-50 80 -27 41 -50 77 -50 80 0 3 11 5 25 5 19 0 34 -14 66 -61z"/>
<path d="M662 830 l-30 -80 63 0 63 0 -30 77 c-16 43 -31 79 -32 81 -2 1 -17
-34 -34 -78z"/>
<path d="M960 881 l0 -51 53 0 c57 0 77 12 77 45 0 37 -16 48 -74 53 l-56 4 0
-51z"/>
<path d="M960 720 l0 -60 53 0 c64 0 88 15 89 57 2 50 -16 63 -83 63 l-59 0 0
-60z"/>
<path d="M1280 881 l0 -52 62 3 c58 3 63 5 72 31 14 39 -10 59 -78 65 l-56 4
0 -51z"/>
<path d="M1280 726 l0 -66 53 0 c64 0 97 20 97 59 0 46 -19 60 -87 67 l-63 7
0 -67z"/>
</g>
</svg>
